<?xml version="1.0" encoding="UTF-8"?>
<svg version="1.1" xmlns="http://www.w3.org/2000/svg" width="1408" height="768">
<path d="M0 0 C464.64 0 929.28 0 1408 0 C1408 253.44 1408 506.88 1408 768 C943.36 768 478.72 768 0 768 C0 514.56 0 261.12 0 0 Z " fill="#FEFEFE" transform="translate(0,0)"/>
<path d="M0 0 C5.70107609 3.62178116 11.11392901 7.53604738 16.4375 11.6875 C17.36006592 12.40063354 17.36006592 12.40063354 18.30126953 13.12817383 C21.03709026 15.28209104 23.05324074 17.07986111 25 20 C21.46309903 23.12079497 18.484542 24.6210965 14 26 C14.00276538 26.7568446 14.00553076 27.51368919 14.00837994 28.29346848 C14.07476779 46.74889452 14.12434271 65.20429657 14.15543652 83.65981674 C14.17087472 92.58494111 14.19190566 101.50998555 14.22631836 110.43505859 C14.25631435 118.21838222 14.27559713 126.00164792 14.28226548 133.78502774 C14.28616054 137.90244042 14.29525019 142.01968746 14.31719017 146.13704681 C14.33771691 150.02105648 14.34380151 153.90483398 14.33932304 157.78889275 C14.34014107 159.20614068 14.34600966 160.62339727 14.35761642 162.04059792 C14.43484656 171.96645998 13.13491523 180.59525431 10 190 C10.99515625 189.443125 11.9903125 188.88625 13.015625 188.3125 C47.38500566 169.40579224 85.49846788 159.92331263 124 154 C108.49 153.67 92.98 153.34 77 153 C76.34 150.69 75.68 148.38 75 146 C76.1616011 146.0040642 77.32320219 146.0081284 78.52000332 146.01231575 C106.111981 146.10661972 133.70364627 146.14924211 161.29578739 146.12847102 C164.69401757 146.12595789 168.09224789 146.12387967 171.49047852 146.12207031 C172.16698727 146.1217028 172.84349603 146.12133529 173.54050506 146.12095664 C184.48564236 146.11604718 195.43041217 146.14634576 206.37545245 146.18972255 C217.61132367 146.23346574 228.8467638 146.23847344 240.08272272 146.2099179 C246.39187498 146.19510625 252.6999203 146.19780934 259.008955 146.24249649 C264.94956825 146.28402011 270.88830499 146.27861083 276.8289032 146.23747826 C279.00692811 146.2306199 281.18508481 146.24078956 283.36293221 146.26943016 C294.8275045 146.76998958 294.8275045 146.76998958 305.21826363 142.85442734 C307.52409695 140.3425221 309.25781727 137.9213897 311 135 C312.17346894 133.44762665 313.3586566 131.90393866 314.5625 130.375 C315.38016933 129.25375154 316.19489512 128.13030411 317 127 C320.97393417 128.66462618 323.9776361 131.3899639 327.1875 134.1875 C332.34142902 138.61942679 337.57894976 142.89569064 343 147 C342.75 148.875 342.75 148.875 342 151 C338.9457709 152.97371758 336.51710387 153.2479608 332.925354 153.24050903 C331.90174271 153.24325836 330.87813141 153.24600769 329.82350159 153.24884033 C328.70644333 153.24164978 327.58938507 153.23445923 326.43847656 153.22705078 C325.25771042 153.22734283 324.07694427 153.22763489 322.86039734 153.22793579 C319.62719692 153.22678175 316.39416994 153.2167558 313.16100407 153.20278788 C309.78041908 153.19027976 306.39983063 153.18910995 303.01922607 153.18673706 C296.61966116 153.18052253 290.22016464 153.16411209 283.82062984 153.14403808 C276.53410735 153.12167824 269.2475816 153.11068544 261.96103334 153.10064721 C246.97398414 153.07974582 231.98699891 153.04457038 217 153 C218.5670018 156.03763348 220.14396231 159.06999136 221.72265625 162.1015625 C222.16242798 162.95435791 222.60219971 163.80715332 223.05529785 164.68579102 C226.7396632 171.74197066 230.90967704 177.86117198 236 184 C236.43989258 184.53850586 236.87978516 185.07701172 237.33300781 185.63183594 C242.8938439 192.43187727 248.61818044 198.94732873 255 205 C258.69502556 203.44927108 261.06409437 201.19398135 263.88671875 198.37890625 C264.34802689 197.91951157 264.80933502 197.46011688 265.28462219 196.98680115 C266.261138 196.01164385 267.23514256 195.03396617 268.20678711 194.05395508 C269.6585812 192.5916286 271.12049529 191.14006331 272.58398438 189.68945312 C281.19214591 181.09390429 288.82563342 171.81903505 296 162 C299.62459108 163.31091176 302.48581186 164.88951756 305.57421875 167.1875 C306.40630859 167.80367187 307.23839844 168.41984375 308.09570312 169.0546875 C308.95099609 169.69664062 309.80628906 170.33859375 310.6875 171 C311.55439453 171.64195312 312.42128906 172.28390625 313.31445312 172.9453125 C319.68422302 177.68422302 319.68422302 177.68422302 322 180 C322 180.99 322 181.98 322 183 C315.48805768 184.04191077 315.48805768 184.04191077 312.1796875 183.7578125 C307.99778856 184.07633552 305.52387115 185.96677759 302.25 188.375 C289.94508347 196.98689379 276.76734836 204.01631149 263 210 C278.15101466 225.39193186 297.05241007 235.94938726 316 246 C316.6496875 246.34482422 317.299375 246.68964844 317.96875 247.04492188 C342.76172738 260.07647659 368.64842551 269.94411617 396 276 C397.08796875 276.2475 398.1759375 276.495 399.296875 276.75 C421.65372107 281.00844687 445.76457697 279.14795935 465.5078125 267.5234375 C477.63306946 259.01198261 484.41692217 246.4171786 487 232 C488.30494465 218.55728251 484.80197396 206.95306247 477 196 C466.54346404 183.37067735 451.88890688 176.96233857 436 174 C435.34 178.29 434.68 182.58 434 187 C433.67 187 433.34 187 433 187 C432.87882812 186.15695312 432.75765625 185.31390625 432.6328125 184.4453125 C432.38144531 182.80175781 432.38144531 182.80175781 432.125 181.125 C431.96257813 180.03445313 431.80015625 178.94390625 431.6328125 177.8203125 C431.23743487 174.88067286 431.23743487 174.88067286 429 173 C405.22596482 166.00763671 375.60566489 176.9110287 354.71875 187.93359375 C342.17809745 194.78009477 330.79601459 203.60218247 321 214 C321 210.20383737 321.80481851 209.76265821 324.4375 207.125 C344.65356237 187.69862756 368.70396037 174.99181358 396 169 C397.34384766 168.67708984 397.34384766 168.67708984 398.71484375 168.34765625 C406.03501686 166.76335338 413.45389501 166.59320943 420.91674805 166.34106445 C421.80144775 166.30972412 422.68614746 166.27838379 423.59765625 166.24609375 C424.79660522 166.21020142 424.79660522 166.21020142 426.01977539 166.17358398 C428.07492793 166.11561953 428.07492793 166.11561953 430 165 C431.98188469 161.10039236 432.362454 157.51950907 432.625 153.1875 C432.69976563 152.02605469 432.77453125 150.86460937 432.8515625 149.66796875 C432.90054688 148.78753906 432.94953125 147.90710938 433 147 C433.33 147 433.66 147 434 147 C434.03738281 147.71285156 434.07476563 148.42570313 434.11328125 149.16015625 C434.51911852 155.07264824 435.11526695 159.78529026 438 165 C441.16240582 167.10827055 442.50657469 167.33817465 446.1875 167.625 C447.08855469 167.69976562 447.98960937 167.77453125 448.91796875 167.8515625 C449.60503906 167.90054688 450.29210938 167.94953125 451 168 C451 168.33 451 168.66 451 169 C448.69 169 446.38 169 444 169 C444 169.66 444 170.32 444 171 C444.7115625 171.12375 445.423125 171.2475 446.15625 171.375 C460.61891117 174.55360685 474.43895197 183.98449399 483 196 C491.25423704 209.66652885 494.63184839 223.83363299 491.08984375 239.56640625 C486.06982098 258.77335752 474.51859323 273.85914262 457.75 284.5625 C428.4730594 300.88570473 393.59023708 299.85595869 362.1875 290.9375 C326.82257961 280.37143044 293.14710549 262.11606687 266.06640625 236.9140625 C264.19705517 235.18252748 262.28020534 233.55491054 260.3125 231.9375 C257.17268723 229.26609753 254.52336267 226.31170134 251.86328125 223.16796875 C250.603754 221.70248107 249.30780873 220.26764289 247.98046875 218.86328125 C230.83535715 200.66783849 219.21041169 178.06641434 210 155 C209.15179687 155.88300781 208.30359375 156.76601563 207.4296875 157.67578125 C201.572862 163.69794419 195.67009044 169.49046225 189.0625 174.6875 C188.26917519 175.32328979 188.26917519 175.32328979 187.45982361 175.97192383 C184.44279278 178.32821345 181.55941729 180.28953898 178.07958984 181.89892578 C173.52960057 184.19781003 169.77148305 186.62620242 167 191 C164.51587986 199.74750703 165.21197897 209.18013845 165.50646973 218.17834473 C165.60031837 221.5436059 165.60777518 224.90901817 165.62304688 228.27539062 C165.67011069 234.85319776 165.80188653 241.42510009 166 248 C180.40708273 245.16269876 194.55743531 241.95835306 208.625 237.75 C210.89766368 237.07751668 213.17109281 236.40781747 215.44564819 235.74176025 C216.83150378 235.33525308 218.21623604 234.92488562 219.59951782 234.50970459 C223.37842271 233.39331967 227.10069894 232.56572503 231 232 C230.93359375 233.72265625 230.93359375 233.72265625 230 236 C227.70671197 237.67598304 225.52804052 239.05771246 223.0625 240.4375 C222.310896 240.86651611 221.55929199 241.29553223 220.78491211 241.73754883 C206.87665576 249.55337965 192.57164184 256.62444205 177.9453125 262.98828125 C177.17688522 263.32313034 176.40845795 263.65797943 175.616745 264.00297546 C171.8226688 265.65179074 168.02191999 267.28215442 164.20922852 268.88745117 C162.80998101 269.4872865 161.41080756 270.08729462 160.01171875 270.6875 C159.37634186 270.94852005 158.74096497 271.2095401 158.08633423 271.47846985 C153.05589583 273.65505863 149.90165503 276.71801397 146.4375 280.875 C145 282 145 282 143.07128906 281.85473633 C140.19156316 280.66639116 139.73064553 279.24135086 138.421875 276.44921875 C137.76445313 275.05993164 137.76445313 275.05993164 137.09375 273.64257812 C136.6503125 272.66740234 136.206875 271.69222656 135.75 270.6875 C135.29109375 269.72392578 134.8321875 268.76035156 134.359375 267.76757812 C131 260.5539202 131 260.5539202 131 256 C131.53109375 255.78085937 132.0621875 255.56171875 132.609375 255.3359375 C133.31578125 255.01882813 134.0221875 254.70171875 134.75 254.375 C135.44609375 254.07335937 136.1421875 253.77171875 136.859375 253.4609375 C139.94081708 251.35790951 141.22255538 249.29598461 143 246 C143.52593991 242.80358896 143.46768983 239.67741132 143.390625 236.4453125 C143.38496521 235.54376434 143.37930542 234.64221619 143.37347412 233.71334839 C143.35118555 230.85001237 143.30100389 227.98795411 143.25 225.125 C143.22992525 223.17710148 143.21167619 221.22918323 143.1953125 219.28125 C143.15134547 214.5203453 143.08237063 209.76038886 143 205 C141.87078125 205.59518433 141.87078125 205.59518433 140.71875 206.20239258 C108.65257435 223.05999751 75.82134151 237.07553374 42 250 C46.07342305 254.28949854 50.50495261 257.89408568 55.1875 261.5 C56.39140381 262.4283667 56.39140381 262.4283667 57.61962891 263.37548828 C60.07358035 265.2585969 62.53462499 267.13187789 65 269 C65.66563965 269.50499023 66.3312793 270.00998047 67.01708984 270.53027344 C90.38254621 288.11588534 115.14735712 304.40614664 140.66259766 318.68212891 C142.71324504 319.8383222 144.74173115 321.02180127 146.76171875 322.23046875 C176.43301454 339.82256247 210.67356338 353.59722012 244.02490234 362.47167969 C246.14311464 363.03828184 248.25282204 363.63176729 250.36328125 364.2265625 C275.26068882 371.14162352 300.34557002 374.52884882 326 377 C327.59884033 377.16012573 327.59884033 377.16012573 329.22998047 377.32348633 C336.9888487 378.04753561 344.71027092 378.18337408 352.5 378.1875 C353.7478125 378.19974609 354.995625 378.21199219 356.28125 378.22460938 C358.075625 378.22750977 358.075625 378.22750977 359.90625 378.23046875 C360.98197266 378.23457764 362.05769531 378.23868652 363.16601562 378.24291992 C365.99999596 378.00000035 367.64435117 377.56365454 370 376 C370.87960753 374.03324241 370.87960753 374.03324241 371.1875 371.75 C371.33316406 370.95207031 371.47882812 370.15414063 371.62890625 369.33203125 C371.75136719 368.56246094 371.87382813 367.79289062 372 367 C372.20625 365.824375 372.4125 364.64875 372.625 363.4375 C372.74875 362.633125 372.8725 361.82875 373 361 C374.73921261 364.05959443 375.28379487 366.58644155 375.6875 370.0625 C376.10598218 372.69168163 376.10598218 372.69168163 377 375 C381.12529373 377.61797487 385.18377072 378.41265497 390 379 C387.45173272 380.42702968 385.3108846 381.16925641 382.4375 381.875 C378.5571224 383.14494176 377.89704396 383.50028098 376 387 C375.35834034 390.06376699 375.07786168 393.13382616 374.8125 396.25 C374.73064453 397.09046875 374.64878906 397.9309375 374.56445312 398.796875 C374.36483518 400.86350783 374.18087489 402.93164248 374 405 C373.67 405 373.34 405 373 405 C372.96261719 403.91460938 372.92523437 402.82921875 372.88671875 401.7109375 C372.82102125 400.26559261 372.75457524 398.82028161 372.6875 397.375 C372.66494141 396.66214844 372.64238281 395.94929688 372.61914062 395.21484375 C372.38101095 390.49554657 371.5572197 387.10417977 369 383 C366.6364055 381.81820275 365.17272679 381.85711378 362.53564453 381.82641602 C361.60406021 381.81282043 360.67247589 381.79922485 359.71266174 381.78521729 C358.69631149 381.77488464 357.67996124 381.764552 356.6328125 381.75390625 C354.45971148 381.72278136 352.28661593 381.69127216 350.11352539 381.65942383 C348.97223175 381.644086 347.83093811 381.62874817 346.65505981 381.61294556 C245.5260169 380.16778283 157.36886066 350.27810591 39.32739258 262.32592773 C38.08452783 261.31052564 36.83880447 260.29860751 35.58959961 259.29101562 C34.30219763 258.24543405 33.03626355 257.17345626 31.77734375 256.09375 C29.79907512 254.61889959 29.79907512 254.61889959 26.1875 255.5 C21.34230798 256.78675591 16.60458065 258.42580429 11.85986328 260.03881836 C1.51985319 263.54744811 -9.01154993 266.32178964 -19.61328125 268.9140625 C-22.86897059 269.71195903 -26.11306687 270.54817947 -29.35546875 271.3984375 C-30.71454346 271.75047241 -30.71454346 271.75047241 -32.10107422 272.10961914 C-33.88170253 272.57121007 -35.66074853 273.03895727 -37.43798828 273.51342773 C-38.24864746 273.72169189 -39.05930664 273.92995605 -39.89453125 274.14453125 C-40.61487549 274.33378174 -41.33521973 274.52303223 -42.07739258 274.71801758 C-44 275 -44 275 -47 274 C-41.61996157 271.89281828 -36.215577 270.13283277 -30.67431641 268.50048828 C-18.80531884 264.99328257 -7.19992737 260.99126717 4.375 256.625 C5.42941284 256.22814499 5.42941284 256.22814499 6.50512695 255.82327271 C14.90014241 252.75171759 14.90014241 252.75171759 23 249 C20.60603493 247.03934568 18.21010415 245.08119741 15.8125 243.125 C14.73548828 242.24448975 14.73548828 242.24448975 13.63671875 241.34619141 C10.1489447 238.50775338 6.6469361 235.70556255 3.04296875 233.015625 C2.44315186 232.56687012 1.84333496 232.11811523 1.2253418 231.65576172 C-0.41667998 230.4368504 -2.06749712 229.229814 -3.71875 228.0234375 C-4.4715625 227.35570312 -5.224375 226.68796875 -6 226 C-6 223 -6 223 -4.3125 221.1875 C-2 220 -2 220 0.109375 220.546875 C4.24767133 222.62720775 7.84161756 225.31792535 11.5625 228.0625 C12.35809326 228.64016113 13.15368652 229.21782227 13.97338867 229.81298828 C17.58893118 232.44732054 21.17153968 235.10857008 24.671875 237.89453125 C25.20997803 238.31790771 25.74808105 238.74128418 26.30249023 239.17749023 C27.71863911 240.30056384 29.11967482 241.44262042 30.51953125 242.5859375 C32.86126818 244.24293739 32.86126818 244.24293739 35.29443359 243.74584961 C38.2958046 242.91845488 40.9466614 241.79524572 43.76953125 240.48046875 C44.89327148 239.95912354 46.01701172 239.43777832 47.17480469 238.90063477 C48.38763536 238.33015409 49.60019381 237.75909438 50.8125 237.1875 C51.43225708 236.8968869 52.05201416 236.6062738 52.69055176 236.30685425 C57.13550402 234.22222322 61.57039798 232.11703327 66 230 C67.08007324 229.48405273 68.16014648 228.96810547 69.27294922 228.43652344 C108.32259934 209.64842557 146.37112986 185.94903255 177 155 C177.33 154.67 177.66 154.34 178 154 C109.38066992 152.86420768 41.12567681 176.05750214 -15 215 C-15.73524902 215.50499023 -16.47049805 216.00998047 -17.22802734 216.53027344 C-26.717121 223.0508946 -35.91058466 229.92252843 -45.04931641 236.92382812 C-86.07280063 268.34990311 -130.31125162 298.59376518 -184.06884766 298.26074219 C-186.13083014 298.24996954 -188.19194893 298.26074252 -190.25390625 298.2734375 C-201.66321178 298.28740332 -212.26288523 296.97161226 -223.0625 293.25 C-223.83198975 292.98759521 -224.60147949 292.72519043 -225.39428711 292.45483398 C-243.38467783 286.12295715 -258.98509123 274.00082051 -268 257 C-271.02652613 250.4412497 -273.85059805 244.3151432 -273 237 C-270.92801674 240.10797488 -270.26449232 242.41602892 -269.3125 246 C-267.24465053 252.86739675 -264.25752696 258.2589224 -260 264 C-259.42636719 264.78117187 -258.85273437 265.56234375 -258.26171875 266.3671875 C-245.38941911 282.29907013 -223.64755962 289.45244786 -204 292 C-158.88406144 295.48922618 -116.52796485 278.03316744 -81 251 C-79.5265915 249.91414927 -78.05113407 248.8310761 -76.57421875 247.75 C-68.16241235 241.59204659 -59.80354535 235.37823922 -51.56640625 228.98828125 C-49.39347264 227.30483649 -47.19900003 225.64925002 -45 224 C-88.56 223.67 -132.12 223.34 -177 223 C-177 233.56 -177 244.12 -177 255 C-181.66069763 260.82587204 -183.15285949 261.65983805 -190 264 C-193.63 264 -197.26 264 -201 264 C-201 177.54 -201 91.08 -201 2 C-194.39297979 4.20234007 -194.39297979 4.20234007 -191.33750916 6.11709595 C-175.3652947 15.21672215 -158.50173213 14.39741738 -140.68771863 14.3406558 C-137.14620783 14.33428116 -133.60504822 14.35522865 -130.06360573 14.37551081 C-121.70593489 14.4225199 -113.34917889 14.42279173 -104.99145508 14.39306641 C-96.40704453 14.3633821 -87.82576613 14.4147189 -79.24185139 14.50517309 C-71.82538662 14.58039633 -64.40991087 14.60478555 -56.99308246 14.58918345 C-52.58285869 14.58042433 -48.17480485 14.59025234 -43.764925 14.64957809 C-23.56416328 15.88100722 -23.56416328 15.88100722 -5.91672421 8.23836708 C-3.55685106 5.63709454 -1.73088053 3.05812604 0 0 Z " fill="#060606" transform="translate(804,221)"/>
<path d="M0 0 C55.11 0 110.22 0 167 0 C167.08060607 44.18555985 167.08060607 44.18555985 167.09765625 62.67382812 C167.10953247 75.44931643 167.12350868 88.22477838 167.15087891 101.00024414 C167.17080127 110.30373778 167.18371371 119.60721009 167.18817699 128.91072446 C167.19078632 133.83773362 167.19692722 138.76468175 167.21146011 143.69167137 C167.22502578 148.32827237 167.22922469 152.96478714 167.22621536 157.6014061 C167.22676598 159.30378373 167.23074947 161.00616422 167.23841095 162.7085247 C167.24835632 165.03216358 167.24597042 167.35547656 167.24050903 169.67912292 C167.24235262 170.97977283 167.24419621 172.28042273 167.24609566 173.62048626 C166.95496374 177.61846138 166.29492277 180.6413375 163.4921875 183.58203125 C161.99479167 184.72135417 160.49739583 185.86067708 159 187 C155.67213793 185.75137016 152.74784155 184.34132155 149.76171875 182.41796875 C148.95452393 181.90476074 148.1473291 181.39155273 147.31567383 180.86279297 C146.44837646 180.30994629 145.5810791 179.75709961 144.6875 179.1875 C124.91583409 166.81831536 104.6687998 156.62058389 83 148 C82.32388672 147.72220703 81.64777344 147.44441406 80.95117188 147.15820312 C59.3437992 138.28418545 36.12758882 134.7874216 13 133 C13 133.66 13 134.32 13 135 C13.89976562 135.01417969 14.79953125 135.02835938 15.7265625 135.04296875 C58.61113868 136.63287789 100.83839099 157.79670433 136 181 C137.03133057 181.67071533 137.03133057 181.67071533 138.08349609 182.35498047 C139.96032652 183.57811965 141.82602852 184.81614605 143.6875 186.0625 C144.72261719 186.75472656 145.75773438 187.44695312 146.82421875 188.16015625 C147.54222656 188.76730469 148.26023437 189.37445313 149 190 C149 193 149 193 147.37411118 194.66495228 C144.38878558 196.34370776 142.43310695 196.36963609 139.01422119 196.36076355 C137.79121433 196.36489604 136.56820747 196.36902853 135.3081398 196.37328625 C133.95054163 196.3626465 132.59294558 196.35173281 131.23535156 196.34057617 C129.78308003 196.33965703 128.33080715 196.34005788 126.87853622 196.34167194 C122.98976168 196.34234916 119.10126413 196.32496324 115.21255493 196.30384064 C111.56340665 196.28675436 107.91432571 196.28595122 104.26513672 196.28381348 C93.5933878 196.26807218 82.9216904 196.2261887 72.25 196.1875 C48.4075 196.125625 24.565 196.06375 0 196 C0 131.32 0 66.64 0 0 Z " fill="#FEFEFE" transform="translate(627,241)"/>
<path d="M0 0 C7.75084073 0 14.31594282 0.09663206 21.75 1.5 C22.9565625 1.71462891 22.9565625 1.71462891 24.1875 1.93359375 C26.12666348 2.27987294 28.06360873 2.6385403 30 3 C29.875 4.8125 29.875 4.8125 29 7 C27.02 7.99 25.04 8.98 23 10 C22.67 15.94 22.34 21.88 22 28 C29.66898121 28.10456834 37.33448343 28.14323465 45.00415039 28.12207031 C47.61034511 28.12401149 50.21659126 28.14364822 52.82250977 28.18164062 C56.5798229 28.2332974 60.33235219 28.22034041 64.08984375 28.1953125 C65.24645004 28.22505157 66.40305634 28.25479065 67.5947113 28.28543091 C72.56249178 28.19846151 75.75009434 28.01072347 79.69436646 24.82122803 C81.97436107 22.30744308 84.00791293 19.74494078 86 17 C87.01189868 15.78417469 88.03105978 14.57429196 89.0625 13.375 C89.701875 12.59125 90.34125 11.8075 91 11 C95.97034341 12.52499173 99.19774271 15.48709126 103 18.875 C104.20770451 19.93561229 105.41602667 20.99552174 106.625 22.0546875 C107.19605469 22.55709961 107.76710938 23.05951172 108.35546875 23.57714844 C110.51970474 25.44964953 112.74815494 27.23434876 115 29 C114.125 33.875 114.125 33.875 113 35 C110.13908182 35.09522418 107.30236379 35.12553326 104.44116211 35.11352539 C103.09495033 35.11374443 103.09495033 35.11374443 101.72154236 35.1139679 C98.74011866 35.11326842 95.7587566 35.10547441 92.77734375 35.09765625 C90.71611058 35.09579219 88.65487696 35.09436823 86.59364319 35.09336853 C81.1569599 35.08954237 75.72030314 35.07971126 70.28363037 35.06866455 C64.74052286 35.05845253 59.19741108 35.05387136 53.65429688 35.04882812 C42.76951769 35.03808908 31.8847652 35.02049149 21 35 C21 45.23 21 55.46 21 66 C27.783013 66.11027205 34.54928949 66.18612013 41.33081055 66.17700195 C43.63238717 66.1839417 45.93399581 66.21029951 48.23510742 66.25708008 C62.92074897 67.17152102 62.92074897 67.17152102 75.45768738 60.93293762 C76.75174706 59.44652533 77.92528047 57.85764613 79.08862305 56.2668457 C79.71937744 55.51878662 80.35013184 54.77072754 81 54 C84.32124354 53.97577797 86.48541302 55.88899844 89.0390625 57.87109375 C89.78414062 58.44537109 90.52921875 59.01964844 91.296875 59.61132812 C92.06515625 60.21396484 92.8334375 60.81660156 93.625 61.4375 C94.40101563 62.03626953 95.17703125 62.63503906 95.9765625 63.25195312 C101.64934242 67.64934242 101.64934242 67.64934242 104 70 C104 70.99 104 71.98 104 73 C97.25 77 97.25 77 95 77 C95.01110306 78.02872726 95.02220612 79.05745453 95.03364563 80.11735535 C95.13501798 89.81363873 95.20996361 99.50981456 95.25906086 109.20650768 C95.28515106 114.19168883 95.32053868 119.17644208 95.37719727 124.16137695 C95.43153748 128.97246313 95.46142488 133.78313783 95.47438622 138.59450722 C95.48362249 140.42976675 95.50165908 142.26500384 95.52865028 144.10008812 C95.56496822 146.67163058 95.56994434 149.24147462 95.56762695 151.81323242 C95.58560333 152.57136734 95.60357971 153.32950226 95.62210083 154.11061096 C95.58308585 158.11380467 95.16156764 159.80314981 92.58683777 162.94013977 C86.83240354 167.52230969 81.23640203 168.50781769 74 168 C73.67 167.67 73.34 167.34 73 167 C73 162.71 73 158.42 73 154 C55.84 154 38.68 154 21 154 C21 165.88 21 177.76 21 190 C33.22212035 190.11289018 33.22212035 190.11289018 45.44335938 190.1328125 C50.43416575 190.12036089 55.42332202 190.11841695 60.41381836 190.18164062 C64.44115982 190.23197369 68.46586592 190.23301387 72.49336433 190.20095444 C74.02387262 190.19722477 75.55453081 190.21077578 77.08471489 190.24249649 C85.98627451 190.49920574 85.98627451 190.49920574 93.87820435 186.85638428 C96.17207265 184.3428177 98.10232445 181.82045569 100 179 C101.18207507 177.45416984 102.3685917 175.91170925 103.5625 174.375 C104.38016933 173.25375154 105.19489512 172.13030411 106 171 C111.73730382 173.5484303 116.25070079 177.98088214 121 182 C121.97066406 182.80953125 122.94132813 183.6190625 123.94140625 184.453125 C124.84761719 185.23171875 125.75382813 186.0103125 126.6875 186.8125 C127.51636719 187.52019531 128.34523438 188.22789062 129.19921875 188.95703125 C131 191 131 191 131 195 C128.04101793 196.69369233 125.93170227 197.24864044 122.53277588 197.24050903 C121.19929863 197.24463303 121.19929863 197.24463303 119.83888245 197.24884033 C118.871436 197.24164978 117.90398956 197.23445923 116.90722656 197.22705078 C115.88251755 197.22734283 114.85780853 197.22763489 113.80204773 197.22793579 C110.4148207 197.22654239 107.02781361 197.21098046 103.640625 197.1953125 C101.29221721 197.19158241 98.94380786 197.18873542 96.59539795 197.18673706 C90.41399846 197.17910028 84.23269293 197.15945131 78.05133057 197.1373291 C71.74386872 197.1168717 65.4363917 197.10773556 59.12890625 197.09765625 C46.75256288 197.07620554 34.37628925 197.04206897 22 197 C22.00720062 198.03803268 22.01440125 199.07606537 22.02182007 200.14555359 C22.04711605 204.07685144 22.06263924 208.00814247 22.07553101 211.9394989 C22.08235418 213.62601438 22.0916657 215.31252204 22.10372925 216.99900818 C22.4655146 268.95970388 22.4655146 268.95970388 9.37890625 283.84375 C5.32745103 287.31931258 2.01353111 288.13004586 -3.1875 288.0625 C-4.08855469 288.05347656 -4.98960937 288.04445313 -5.91796875 288.03515625 C-6.94857422 288.01775391 -6.94857422 288.01775391 -8 288 C-7.12637444 281.3295048 -5.80903824 274.76682097 -4.4609375 268.17773438 C-2.34049529 257.40936928 -1.85714564 246.62473888 -1.68359375 235.671875 C-1.66494263 234.6813916 -1.6462915 233.6909082 -1.6270752 232.67041016 C-1.55965115 229.03034937 -1.4989505 225.39016653 -1.4375 221.75 C-1.293125 213.5825 -1.14875 205.415 -1 197 C-34.66 197 -68.32 197 -103 197 C-103.66 194.69 -104.32 192.38 -105 190 C-70.35 190 -35.7 190 0 190 C0 178.12 0 166.24 0 154 C-16.5 154 -33 154 -50 154 C-50 156.31 -50 158.62 -50 161 C-51.39416568 164.60842882 -52.63602172 165.77541766 -55.9375 167.8125 C-60 169 -60 169 -72 169 C-72 131.71 -72 94.42 -72 56 C-68.26116095 56.74776781 -66.37373384 57.14946224 -63.2409668 58.8125 C-49.74801639 65.51601741 -37.69294846 66.14100448 -22.8125 66 C-20.58657249 66.00811494 -18.36065505 66.01981317 -16.13476562 66.03515625 C-10.75453873 66.07117116 -5.38203421 66.03421237 0 66 C0 55.77 0 45.54 0 35 C-27.72 35 -55.44 35 -84 35 C-84.66 32.69 -85.32 30.38 -86 28 C-57.62 28 -29.24 28 0 28 C0 18.76 0 9.52 0 0 Z " fill="#050505" transform="translate(416,250)"/>
<path d="M0 0 C4.33579729 0.49342003 7.04490028 3.29783985 10.1875 6.0625 C10.75686279 6.55403564 11.32622559 7.04557129 11.9128418 7.55200195 C13.61589582 9.02651279 15.30950655 10.51111579 17 12 C17.94101562 12.82757813 18.88203125 13.65515625 19.8515625 14.5078125 C21.90891476 16.33003879 23.95904551 18.15944931 26 20 C25.125 23.875 25.125 23.875 24 25 C21.04171032 25.09798302 18.10675888 25.12991615 15.14805603 25.12025452 C14.20798456 25.12110894 13.26791309 25.12196337 12.29935461 25.12284368 C9.12394863 25.12450136 5.94859454 25.11897243 2.77319336 25.11352539 C0.50706483 25.11324355 -1.75906379 25.11340118 -4.02519226 25.1139679 C-10.19849782 25.11425601 -16.37178413 25.10835703 -22.54508519 25.10139394 C-28.98866889 25.09516272 -35.43225298 25.09455679 -41.87583923 25.09336853 C-52.69791031 25.09060882 -63.51997345 25.08435327 -74.34204102 25.07543945 C-85.49080367 25.06626607 -96.63956441 25.05918488 -107.78833008 25.05493164 C-108.47507634 25.05466892 -109.1618226 25.05440619 -109.86937935 25.05413551 C-113.31444509 25.05283051 -116.75951085 25.05156679 -120.20457661 25.05032361 C-148.80305587 25.0399501 -177.40152766 25.02225689 -206 25 C-205.99815641 25.56062574 -205.99631283 26.12125149 -205.99441338 26.69886589 C-205.94998652 40.42467621 -205.91715235 54.15047371 -205.89637566 67.87634087 C-205.88598681 74.5144343 -205.8719182 81.1524614 -205.84912109 87.79052734 C-205.82721666 94.20963167 -205.81539464 100.62868601 -205.81024551 107.04782486 C-205.8065811 109.48352977 -205.79942653 111.91923228 -205.78853989 114.35491562 C-205.72979949 128.05543672 -206.05579244 141.4278944 -208 155 C-208.09696702 155.68123775 -208.19393404 156.36247549 -208.29383945 157.0643568 C-214.61214717 201.1898549 -229.11844991 244.7543121 -260 278 C-260.56058105 278.60440918 -261.12116211 279.20881836 -261.69873047 279.83154297 C-283.40106093 302.9488583 -314.41687876 323.23649376 -346.96923828 325.17700195 C-350.35457102 325.24389839 -353.73911616 325.28483755 -357.125 325.3125 C-358.28515625 325.34150391 -359.4453125 325.37050781 -360.640625 325.40039062 C-374.52572435 325.50134493 -385.40770028 321.09988578 -395.6875 311.875 C-403.67682875 303.53183151 -406.34805256 293.32339392 -406.2109375 282.12109375 C-405.47167193 271.18270132 -400.00740441 261.09804949 -392.0390625 253.65625 C-385.08991669 248.01173309 -377.51610804 243.7413999 -369 241 C-368.08347656 240.7009375 -367.16695312 240.401875 -366.22265625 240.09375 C-350.88035977 235.82871005 -334.28654461 237.18661792 -319 241 C-317.93007813 241.26683594 -316.86015625 241.53367187 -315.7578125 241.80859375 C-309.17313843 243.65591503 -302.94057307 246.19738214 -296.6875 248.9375 C-295.57592529 249.42319458 -295.57592529 249.42319458 -294.44189453 249.91870117 C-289.34934319 252.21633716 -284.66477861 254.92930325 -280 258 C-280.66 258.33 -281.32 258.66 -282 259 C-284.24535034 258.04641159 -286.38718538 257.03263167 -288.5625 255.9375 C-312.97053764 244.17473301 -340.3468709 238.198407 -367 246 C-380.90512022 251.0521456 -391.40757631 260.0675884 -398.125 273.19921875 C-400.85724601 281.94484548 -400.38116758 293.41548324 -396.5625 301.6875 C-391.1281961 310.80845607 -383.30553315 316.65271337 -373.13061523 319.52832031 C-350.21932949 324.6004647 -324.17624513 314.95683439 -305 303 C-265.66433997 276.67942027 -244.73302216 231.53432232 -235.75 186.375 C-228.95513064 149.01703636 -228.34818363 111.70436676 -228.26650882 73.85432816 C-228.250433 66.76044612 -228.2118213 59.66673133 -228.17194796 52.57294953 C-228.09078165 38.04870029 -228.03593246 23.52443124 -228 9 C-219.85022874 11.5807609 -219.85022874 11.5807609 -216.39452362 13.28473377 C-207.02742395 17.85075375 -198.30827634 17.76947877 -188.11132812 17.78979492 C-186.22755191 17.8113421 -184.34379725 17.83484951 -182.46006775 17.8601532 C-177.37541299 17.92105902 -172.29110555 17.94952648 -167.2061367 17.96801162 C-164.02324951 17.98050014 -160.84045334 17.99906784 -157.65760803 18.01952553 C-146.53684865 18.0895971 -135.41637118 18.12965917 -124.29541016 18.14624023 C-113.95386233 18.16259745 -103.61454109 18.25061682 -93.27372599 18.37062758 C-84.37054724 18.47032958 -75.46811001 18.51588796 -66.56437826 18.5205906 C-61.25684746 18.52451676 -55.95173342 18.55068246 -50.64479065 18.6330471 C-45.65296751 18.70895143 -40.66542772 18.71722121 -35.6732502 18.67497444 C-33.84953108 18.67086585 -32.02557001 18.69037847 -30.20242119 18.73616791 C-19.34467569 19.08478101 -19.34467569 19.08478101 -10.23817444 13.87697792 C-7.11433335 10.48292843 -4.52255726 6.85685616 -2 3 C-1.34 2.01 -0.68 1.02 0 0 Z " fill="#060606" transform="translate(521,213)"/>
<path d="M0 0 C7.19459857 -0.21120322 14.02087575 0.39247501 21.125 1.5 C22.08148437 1.64308594 23.03796875 1.78617188 24.0234375 1.93359375 C26.35002216 2.28258145 28.67539156 2.63812333 31 3 C31 3.99 31 4.98 31 6 C28 8.1875 28 8.1875 25 10 C25.69908996 25.42819232 27.1655004 45.7482506 36 59 C37.27939453 58.82871582 38.55878906 58.65743164 39.87695312 58.48095703 C44.7002652 57.83540465 49.52369945 57.19076903 54.34716797 56.54638672 C56.42044272 56.2692865 58.49368585 55.99194956 60.56689453 55.71435547 C63.57576001 55.31152524 66.58472895 54.9094789 69.59375 54.5078125 C71.06328125 54.31134125 71.06328125 54.31134125 72.5625 54.11090088 C77.01721162 53.51809162 81.47242596 52.93584008 85.93359375 52.39355469 C86.67532837 52.30331024 87.41706299 52.2130658 88.18127441 52.12008667 C90.13152628 51.88521866 92.08234368 51.65505973 94.03320312 51.42529297 C98.38328914 50.80170427 99.61277081 50.49078319 102.41015625 46.9453125 C103.3020235 45.6772926 104.18585921 44.40359399 105.0625 43.125 C105.73249023 42.16787109 105.73249023 42.16787109 106.41601562 41.19140625 C108.30896522 38.48072506 110.165956 35.751066 112 33 C116.60269859 34.55166733 120.12552134 37.03537141 124 39.875 C124.60328125 40.30941406 125.2065625 40.74382812 125.828125 41.19140625 C129.29679381 43.70242085 132.67865505 46.2951168 136 49 C135.75 50.875 135.75 50.875 135 53 C131.70312129 55.15260458 128.44795307 55.48572145 124.5859375 55.9296875 C123.28358154 56.08324707 121.98122559 56.23680664 120.6394043 56.39501953 C119.21794362 56.55507898 117.79647533 56.71507073 116.375 56.875 C114.90722142 57.04597106 113.43953042 57.21769552 111.97192383 57.39013672 C108.10405777 57.84294859 104.23526444 58.28724606 100.3661499 58.72924805 C94.20276459 59.43450709 88.04075234 60.15158122 81.87896729 60.8706665 C79.74370399 61.11847718 77.60798932 61.36203306 75.47216797 61.60498047 C68.4401643 62.41372867 61.45772812 63.35024398 54.48699951 64.58798218 C51.07061675 65.15396966 47.70671729 65.41759696 44.25 65.625 C42.46335937 65.73714844 42.46335937 65.73714844 40.640625 65.8515625 C39.33351563 65.92503906 39.33351563 65.92503906 38 66 C42.99945898 75.32769431 48.02427844 83.97508455 55 92 C55.77214844 92.969375 56.54429688 93.93875 57.33984375 94.9375 C60.02836211 98.15944647 63.01904621 100.78657986 66.3125 103.375 C66.9113501 103.84615234 67.5102002 104.31730469 68.12719727 104.80273438 C81.00565265 114.57888642 97.74060773 122.58887135 114 122 C115.02641849 119.85668844 116.0471952 117.7110814 117.0625 115.5625 C117.37541992 114.9010498 117.68833984 114.23959961 118.01074219 113.55810547 C119.75276646 109.82780674 121.39650782 106.07989842 122.91796875 102.25390625 C123.22532959 101.48167725 123.53269043 100.70944824 123.84936523 99.91381836 C124.44340407 98.40416423 125.02779152 96.89067177 125.60180664 95.37329102 C126.31995394 93.54809794 127.15151712 91.76837273 128 90 C128.99 89.67 129.98 89.34 131 89 C130.97905273 90.02883301 130.95810547 91.05766602 130.93652344 92.11767578 C130.86385006 95.95298213 130.81810179 99.78822822 130.78027344 103.62402344 C130.76021991 105.28070325 130.73296971 106.93731282 130.69824219 108.59375 C130.64944488 110.98194758 130.62696936 113.36920547 130.609375 115.7578125 C130.58872986 116.49242706 130.56808472 117.22704163 130.54681396 117.98391724 C130.54457266 123.17889578 131.82104786 125.95574034 135 130 C137.4915904 133.7373856 137.45793285 135.57331583 137 140 C134.57091293 144.04847845 132.44891292 145.625982 128 147 C101.31694037 149.34157462 74.52780767 138.76288225 54 122 C37.1003671 107.49902467 25.07606233 91.27894036 16 71 C16 70.34 16 69.68 16 69 C15.30664551 69.11069824 14.61329102 69.22139648 13.89892578 69.33544922 C-10.42656019 73.20002056 -10.42656019 73.20002056 -22.47802734 74.40380859 C-25.23532434 74.68040895 -27.93277386 74.9861185 -30.6484375 75.546875 C-33.25564481 76.04926046 -35.66012928 76.09786494 -38.3125 76.0625 C-39.63701172 76.04896484 -39.63701172 76.04896484 -40.98828125 76.03515625 C-41.65214844 76.02355469 -42.31601562 76.01195312 -43 76 C-43.66 73.69 -44.32 71.38 -45 69 C-39.47312883 68.2990517 -33.94537314 67.60567884 -28.41674805 66.91870117 C-26.54410442 66.68500114 -24.67169828 66.44938857 -22.79956055 66.21166992 C-10.87194223 64.69872719 0.98617349 63.52208185 13 63 C12.52546387 61.90196045 12.05092773 60.8039209 11.56201172 59.67260742 C7.23692075 49.50343839 5.28203559 38.8224481 3.3125 28 C3.09803223 26.83766846 2.88356445 25.67533691 2.66259766 24.4777832 C1.22643493 16.31412078 0.44249661 8.27460796 0 0 Z " fill="#060606" transform="translate(1010,192)"/>
<path d="M0 0 C6.64766356 2.0229398 12.81944187 4.65072929 19.0625 7.6875 C19.92810547 8.10322266 20.79371094 8.51894531 21.68554688 8.94726562 C23.79270985 9.96010087 25.8974094 10.9777159 28 12 C28 12.99 28 13.98 28 15 C24.5647952 17.29013653 23.014669 17.17842973 19 17 C18.7628125 17.67160156 18.525625 18.34320313 18.28125 19.03515625 C16.68054376 22.73922954 14.65239355 26.03187655 12.5 29.4375 C12.06075195 30.13617188 11.62150391 30.83484375 11.16894531 31.5546875 C5.63755128 40.26318828 -0.40153625 48.58759368 -6.625 56.8125 C-9.09958022 59.47114386 -9.09958022 59.47114386 -9 61 C-4.05 62.32 0.9 63.64 6 65 C5.505 66.98 5.505 66.98 5 69 C1.9375 70.25 1.9375 70.25 -1 71 C-0.98889694 71.95355881 -0.97779388 72.90711761 -0.96635437 73.88957214 C-0.8649608 82.87947243 -0.79002637 91.8692566 -0.74093914 100.85959911 C-0.71485417 105.48159315 -0.6794766 110.10312531 -0.62280273 114.72485352 C-0.56844311 119.18581488 -0.53857118 123.64633223 -0.52561378 128.10759926 C-0.51638093 129.80889183 -0.49835087 131.51016031 -0.47134972 133.21126366 C-0.43500496 135.59604615 -0.43005663 137.97899842 -0.43237305 140.36401367 C-0.41439667 141.06604416 -0.39642029 141.76807465 -0.37789917 142.49137878 C-0.41825014 146.33527455 -0.90291775 147.88147398 -3.37141418 150.8952179 C-9.81743265 156.05672498 -14.28593519 155 -23 155 C-23.33 128.93 -23.66 102.86 -24 76 C-26.97 78.97 -29.94 81.94 -33 85 C-34.69719003 86.49542618 -36.42059358 87.96262782 -38.1875 89.375 C-39.10789062 90.11105469 -40.02828125 90.84710938 -40.9765625 91.60546875 C-41.97429688 92.39566406 -42.97203125 93.18585938 -44 94 C-45.15415233 94.93296752 -46.30777735 95.86658766 -47.4609375 96.80078125 C-65.1061725 111 -65.1061725 111 -70 111 C-69.42436479 107.2025259 -67.79585903 105.37905116 -65.1875 102.625 C-63.96160156 101.29662109 -63.96160156 101.29662109 -62.7109375 99.94140625 C-62.26975586 99.46461426 -61.82857422 98.98782227 -61.37402344 98.49658203 C-36.26260412 71.14530264 -14.78685518 38.35386545 -1.91796875 3.4296875 C-1 1 -1 1 0 0 Z " fill="#050505" transform="translate(949,192)"/>
<path d="M0 0 C17.16 0 34.32 0 52 0 C52 11.88 52 23.76 52 36 C34.84 36 17.68 36 0 36 C0 24.12 0 12.24 0 0 Z " fill="#F6F6F6" transform="translate(437,362)"/>
<path d="M0 0 C16.83 0 33.66 0 51 0 C51 11.88 51 23.76 51 36 C34.17 36 17.34 36 0 36 C0 24.12 0 12.24 0 0 Z " fill="#F4F4F4" transform="translate(365,362)"/>
<path d="M0 0 C17.16 0 34.32 0 52 0 C52 11.22 52 22.44 52 34 C34.84 34 17.68 34 0 34 C0 22.78 0 11.56 0 0 Z " fill="#FAFAFA" transform="translate(437,322)"/>
<path d="M0 0 C16.5 0 33 0 50 0 C50 11.22 50 22.44 50 34 C33.5 34 17 34 0 34 C0 22.78 0 11.56 0 0 Z " fill="#FBFBFB" transform="translate(366,322)"/>
<path d="M0 0 C4.20809884 -0.11656783 8.41577996 -0.18737611 12.625 -0.25 C14.40970703 -0.30027344 14.40970703 -0.30027344 16.23046875 -0.3515625 C27.29015573 -0.47513442 27.29015573 -0.47513442 32 4 C34.85651136 6.98387174 35.47453081 9.14477134 35.5625 13.25 C35.40424494 18.40361052 34.20998186 21.45538326 30.85546875 25.34375 C24.99516075 30.57484598 18.5046496 32.13307018 10.8125 32.0625 C9.54019531 32.05347656 8.26789062 32.04445313 6.95703125 32.03515625 C5.49330078 32.01775391 5.49330078 32.01775391 4 32 C3.87882813 32.72445312 3.75765625 33.44890625 3.6328125 34.1953125 C2.21023513 42.40248963 2.21023513 42.40248963 0.8125 46.375 C-0.10756923 49.34753136 0.13166909 51.0476749 1 54 C2.65 54.33 4.3 54.66 6 55 C6 55.33 6 55.66 6 56 C-0.6 56 -7.2 56 -14 56 C-12.68 55.34 -11.36 54.68 -10 54 C-7.3037687 49.5981236 -5.98272727 44.89245898 -4.6875 39.9375 C-4.26018452 38.34606649 -3.83175 36.75493314 -3.40234375 35.1640625 C-3.17788574 34.32907227 -2.95342773 33.49408203 -2.72216797 32.63378906 C-1.96724834 29.88055278 -1.17837186 27.13905672 -0.37890625 24.3984375 C-0.10796143 23.46781494 0.1629834 22.53719238 0.44213867 21.57836914 C0.96901021 19.77452275 1.49897557 17.97157628 2.0324707 16.16967773 C3.40491935 11.44265931 4.44385827 6.89272307 5 2 C3.35 2 1.7 2 0 2 C0 1.34 0 0.68 0 0 Z " fill="#0E0E0E" transform="translate(697,557)"/>
<path d="M0 0 C3.6301177 2.16262331 5.36758895 4.16738275 7 8 C8.4414224 15.5257422 5.73095084 22.54258509 2 29 C-1.44629975 33.00215455 -5.70766494 36.91439281 -11 38 C-15.44819376 37.92056797 -17.41743095 37.48125269 -20.875 34.625 C-24.37967594 30.29569442 -24.4070329 26.36239022 -24.3359375 20.98046875 C-23.41694803 12.82710869 -18.96632434 7.31297867 -12.76953125 2.27734375 C-8.74011777 -0.63130572 -4.83803218 -0.61103175 0 0 Z " fill="#F6F6F6" transform="translate(602,577)"/>
<path d="M0 0 C3.07061968 1.71368609 5.40450726 3.80901452 7 7 C7.90532381 15.68220376 6.53059946 22.24884528 1.31640625 29.265625 C-2.14501505 33.40444272 -4.87993661 36.51803899 -10.40234375 37.37109375 C-17.28888017 37.55148068 -17.28888017 37.55148068 -21.0625 34.625 C-24.78429786 29.5825642 -24.56959797 25.13538385 -24 19 C-22.10846585 11.8668652 -17.41145307 4.71065189 -11.0546875 0.8046875 C-7.38893877 -0.63094793 -3.85749801 -0.67406107 0 0 Z " fill="#F8F8F8" transform="translate(637,577)"/>
<path d="M0 0 C3 2.4375 3 2.4375 5 5 C5.33 5.33 5.66 5.66 6 6 C6.87657438 15.00367114 6.47917589 22.57176403 1 30 C-3.20010929 34.40741082 -6.62799831 37.13392497 -12.8125 37.375 C-16.89393784 37.35730591 -17.7208633 37.22217002 -21.0625 34.5625 C-21.701875 33.716875 -22.34125 32.87125 -23 32 C-23.33 31.67 -23.66 31.34 -24 31 C-24.95494544 21.49751011 -23.25258486 14.15927254 -18.1875 6.125 C-12.89559575 0.98429301 -7.39852898 -1.66259078 0 0 Z " fill="#F8F8F8" transform="translate(753,577)"/>
<path d="M0 0 C13.11719633 -0.96371238 25.93595909 2.93784623 37 10 C42.15897631 14.53668734 44.76580647 19.04916146 45.3125 25.9375 C45.17526356 30.78652103 43.55272684 34.2083921 40.375 37.875 C36.71918335 39.60670262 32.93164796 40.00777486 29 39 C24.32978499 35.30244846 22.47653763 31.14018136 20.25 25.8125 C15.61279293 15.38073531 9.41875576 8.41276988 0 2 C0 1.34 0 0.68 0 0 Z " fill="#060606" transform="translate(389,190)"/>
<path d="M0 0 C12.82301924 -0.75552977 25.1337371 1.84752316 36 9 C40.06684768 12.75401324 43.60604454 16.96745914 44.3359375 22.5859375 C44.42205802 28.73494249 44.16126213 32.34917762 40 37 C36.25836387 38.87081807 32.07536512 38.52231737 28 38 C23.45544891 35.27326935 22.36531776 31.53447488 20.625 26.75 C16.8547867 16.40518635 10.31492765 10.08085211 2.16015625 2.96875 C1.44730469 2.3190625 0.73445312 1.669375 0 1 C0 0.67 0 0.34 0 0 Z " fill="#050505" transform="translate(986,324)"/>
<path d="M0 0 C3.9247808 1.34979234 6.47097609 3.06730826 9.5625 5.8125 C22.42068747 16.57386714 37.22653169 25.14393775 52 33 C52.6276123 33.33837891 53.25522461 33.67675781 53.90185547 34.02539062 C68.09588326 41.6294639 83.07473912 47.61056867 98.625 51.8125 C99.29055908 51.99514404 99.95611816 52.17778809 100.6418457 52.3659668 C115.69452486 56.18246175 130.71132266 57.49711172 146.20068359 57.39111328 C149.02619475 57.37484922 151.85030956 57.39116721 154.67578125 57.41015625 C168.2542922 57.83709744 168.2542922 57.83709744 181 54 C183.25583595 50.54317719 183.38026808 47.3288653 183.625 43.25 C183.69976562 42.07953125 183.77453125 40.9090625 183.8515625 39.703125 C183.92503906 38.36507812 183.92503906 38.36507812 184 37 C186.56331361 39.56331361 186.27869005 40.75611956 186.4375 44.3125 C186.73446764 50.28775386 186.73446764 50.28775386 190 55 C193.63391436 56.00912245 197.25648897 56.57416768 201 57 C198.14155818 59.85844182 195.22308039 59.70789309 191.3125 60.2421875 C188.92409668 60.78418842 188.92409668 60.78418842 187.7578125 62.6171875 C186.74438052 65.80375199 186.30470286 68.93514938 185.875 72.25 C185.62363281 74.14492188 185.62363281 74.14492188 185.3671875 76.078125 C185.24601563 77.04234375 185.12484375 78.0065625 185 79 C184.67 79 184.34 79 184 79 C183.90203125 77.87980469 183.8040625 76.75960937 183.703125 75.60546875 C183.55303546 74.13271516 183.40194123 72.66006371 183.25 71.1875 C183.188125 70.44951172 183.12625 69.71152344 183.0625 68.95117188 C182.70726183 65.68002042 182.44296575 63.49314923 180.20703125 61.00390625 C177.74237318 59.882814 176.13337697 59.65876897 173.4375 59.75 C172.67308594 59.76546875 171.90867187 59.7809375 171.12109375 59.796875 C168.81226263 59.93793945 168.81226263 59.93793945 166 61 C164.65928739 61.10477967 163.31415344 61.15832212 161.96948242 61.17700195 C160.75381088 61.19596779 160.75381088 61.19596779 159.51358032 61.21531677 C158.6364035 61.22289505 157.75922668 61.23047333 156.85546875 61.23828125 C155.94219818 61.2480751 155.02892761 61.25786896 154.08798218 61.26795959 C116.92500525 61.5842947 116.92500525 61.5842947 100 57 C98.25797727 56.57094503 96.51578435 56.14258061 94.7734375 55.71484375 C59.0423028 46.56055908 25.77101571 26.29501048 0 0 Z " fill="#131313" transform="translate(276,499)"/>
<path d="M0 0 C13.54304719 -0.74095699 27.17066552 1.07472433 38 10 C41.84469466 14.09174331 44.32261213 17.9877643 44.5625 23.6875 C44.26362516 27.66323049 43.27379578 30.67051332 41 34 C37.84689823 36.39200824 34.86694002 36.39458572 31 36 C26.08389611 33.84285425 24.43156025 30.59456918 22.25 25.9375 C17.25780368 15.9937429 10.66340396 8.82384048 1.65234375 2.27734375 C1.10707031 1.85582031 0.56179688 1.43429688 0 1 C0 0.67 0 0.34 0 0 Z " fill="#060606" transform="translate(1058,198)"/>
<path d="M0 0 C0.71478516 0.00193359 1.42957031 0.00386719 2.16601562 0.00585938 C7.29833273 0.04773685 12.28935453 0.39847922 17.375 1.125 C16.68334212 6.54298672 15.61700752 11.8072785 14.375 17.125 C14.045 17.125 13.715 17.125 13.375 17.125 C13.27703125 16.52171875 13.1790625 15.9184375 13.078125 15.296875 C12.17321328 10.46027786 11.55248667 7.16317212 7.375 4.125 C2.40231224 2.46743741 -2.88950771 2.05291778 -7.84765625 3.99609375 C-17.1119359 9.44041994 -22.06449546 17.98683588 -25.23828125 28.07421875 C-26.8222591 36.47410129 -26.09473496 43.70755838 -22.01171875 51.19921875 C-20.60294081 53.39325915 -20.60294081 53.39325915 -17.625 55.125 C-11.3407584 55.82324907 -4.74860007 56.17621866 0.375 52.125 C2.32748032 49.55071066 4.12699611 46.93435748 5.859375 44.20703125 C6.35953125 43.51996094 6.8596875 42.83289063 7.375 42.125 C8.035 42.125 8.695 42.125 9.375 42.125 C6.5735236 53.24601239 6.5735236 53.24601239 2.375 56.125 C-4.85872365 59.05701225 -14.51174304 59.62889911 -22.08203125 57.40234375 C-27.50526982 54.48395611 -30.76746884 49.86288228 -32.625 44.125 C-33.62662297 33.81355506 -33.23703401 25.12515028 -27.625 16.125 C-26.99078125 15.03638672 -26.99078125 15.03638672 -26.34375 13.92578125 C-20.29856201 4.69984028 -10.78299671 -0.06931219 0 0 Z " fill="#101010" transform="translate(561.625,555.875)"/>
<path d="M0 0 C9.6192091 -0.75808128 9.6192091 -0.75808128 14.1875 1.75 C16.96921814 6.7379084 16.83151492 11.42129084 16 17 C14.1875 20.5625 14.1875 20.5625 12 23 C11.525625 23.5775 11.05125 24.155 10.5625 24.75 C6.76457828 27.78833737 2.92586704 28.23917752 -1.8125 28.125 C-3.27623047 28.09792969 -3.27623047 28.09792969 -4.76953125 28.0703125 C-5.50558594 28.04710937 -6.24164062 28.02390625 -7 28 C-5.61743916 21.59758042 -4.06377601 15.26550081 -2.375 8.9375 C-2.14554688 8.07189453 -1.91609375 7.20628906 -1.6796875 6.31445312 C-1.12139114 4.2092106 -0.56092611 2.10454338 0 0 Z " fill="#F9F9F9" transform="translate(709,559)"/>
<path d="M0 0 C2.5625 1.625 2.5625 1.625 4 4 C4.08094494 7.80441239 3.31816728 9.56893466 1.0625 12.625 C-4.28954685 16.77556694 -10.37262208 18.81653966 -17 20 C-17.27429625 25.39449293 -17.36055646 28.51925805 -14 33 C-7.83543524 32.62257767 -4.82624485 30.84129692 0 27 C-0.87275226 30.81829114 -2.43679811 32.63755833 -5.5625 34.8125 C-9.37963282 37.00265818 -12.56290509 37.58566376 -16.921875 37.6640625 C-20.17268718 36.62526914 -21.23992941 34.86351441 -23 32 C-24.36321433 24.30018938 -23.54745186 16.98586913 -19.63671875 10.1953125 C-14.48909758 3.29086597 -8.89589335 -1.24577599 0 0 Z " fill="#0C0C0C" transform="translate(853,577)"/>
<path d="M0 0 C3.07061968 1.71368609 5.40450726 3.80901452 7 7 C7.90532381 15.68220376 6.53059946 22.24884528 1.31640625 29.265625 C-2.14501505 33.40444272 -4.87993661 36.51803899 -10.40234375 37.37109375 C-17.28888017 37.55148068 -17.28888017 37.55148068 -21.0625 34.625 C-24.78429786 29.5825642 -24.56959797 25.13538385 -24 19 C-22.10846585 11.8668652 -17.41145307 4.71065189 -11.0546875 0.8046875 C-7.38893877 -0.63094793 -3.85749801 -0.67406107 0 0 Z M-13 6 C-17.79985179 13.76272327 -19.1869615 22.0040813 -18 31 C-17.0688404 33.2946465 -17.0688404 33.2946465 -16 35 C-10.94577796 35.39697662 -10.94577796 35.39697662 -6.4375 33.359375 C-0.67319857 27.77982682 1.298343 19.26371207 1.5 11.4375 C1.4551183 7.30277357 0.92767674 5.00399059 -2 2 C-7.13669065 1.10666249 -9.29797882 2.55449682 -13 6 Z " fill="#141414" transform="translate(637,577)"/>
<path d="M0 0 C3.6301177 2.16262331 5.36758895 4.16738275 7 8 C8.4414224 15.5257422 5.73095084 22.54258509 2 29 C-1.44629975 33.00215455 -5.70766494 36.91439281 -11 38 C-15.44819376 37.92056797 -17.41743095 37.48125269 -20.875 34.625 C-24.37967594 30.29569442 -24.4070329 26.36239022 -24.3359375 20.98046875 C-23.41694803 12.82710869 -18.96632434 7.31297867 -12.76953125 2.27734375 C-8.74011777 -0.63130572 -4.83803218 -0.61103175 0 0 Z M-10.6875 3.4375 C-16.33692072 9.6976689 -18.59941635 17.35322971 -19.3125 25.625 C-18.96549595 29.37264371 -17.88900435 31.7729509 -16 35 C-11.92014379 35.3999859 -9.73039552 35.50957827 -6.3125 33.125 C-1.72139583 26.92080518 1.12111018 19.25433148 1.1875 11.5 C1.20167969 10.7471875 1.21585938 9.994375 1.23046875 9.21875 C0.9663818 6.67635364 0.42394815 5.12196195 -1 3 C-4.94130892 1.81017089 -7.01039119 1.47067436 -10.6875 3.4375 Z " fill="#191919" transform="translate(602,577)"/>
<path d="M0 0 C3 2.4375 3 2.4375 5 5 C5.33 5.33 5.66 5.66 6 6 C6.87657438 15.00367114 6.47917589 22.57176403 1 30 C-3.20010929 34.40741082 -6.62799831 37.13392497 -12.8125 37.375 C-16.89393784 37.35730591 -17.7208633 37.22217002 -21.0625 34.5625 C-21.701875 33.716875 -22.34125 32.87125 -23 32 C-23.33 31.67 -23.66 31.34 -24 31 C-24.95494544 21.49751011 -23.25258486 14.15927254 -18.1875 6.125 C-12.89559575 0.98429301 -7.39852898 -1.66259078 0 0 Z M-13.6796875 7.02734375 C-18.26436347 13.87722944 -19.22078742 20.79932445 -19 29 C-18.29583997 31.49371324 -17.51848459 32.87412157 -16 35 C-11.3849401 35.6487561 -11.3849401 35.6487561 -7.3046875 33.72265625 C-0.30236687 25.9638035 0.33819633 18.30304298 0.3984375 8.29296875 C0.2718985 5.06492519 0.2718985 5.06492519 -1.34765625 3.08984375 C-6.81234637 -0.51452633 -10.33863186 2.62799562 -13.6796875 7.02734375 Z " fill="#151515" transform="translate(753,577)"/>
<path d="M0 0 C-1.36728798 7.50084829 -3.22747379 14.79407046 -5.3125 22.125 C-5.62010254 23.21796387 -5.92770508 24.31092773 -6.24462891 25.43701172 C-8.36231399 32.90892711 -10.6182638 40.32150036 -13.0546875 47.6953125 C-14.03581601 51.12520805 -14.57680959 54.46140786 -15 58 C-12.36 55.69 -9.72 53.38 -7 51 C-7 54.97378549 -8.34753657 56.12649795 -11 59 C-14.01549954 61.04275776 -16.39030092 61.2926783 -20 61 C-21 60 -21 60 -21.2578125 57.140625 C-21.17338971 51.78658581 -19.43312989 46.82909875 -17.875 41.75 C-17.40392822 40.173396 -17.40392822 40.173396 -16.92333984 38.56494141 C-14.66155478 31.03742021 -12.31862867 23.53331527 -9.86669922 16.06542969 C-8.56653895 12.05562337 -7.56901107 8.19480255 -7 4 C-8.32 4 -9.64 4 -11 4 C-11 3.34 -11 2.68 -11 2 C-7.12315913 0.80712589 -4.08378077 0 0 0 Z " fill="#121212" transform="translate(669,553)"/>
<path d="M0 0 C-0.62817857 5.46587556 -1.91806366 10.44572481 -3.5625 15.6875 C-6.60765892 25.596622 -9.46299172 35.55482497 -12.28344727 45.5300293 C-12.60756592 46.6725415 -12.93168457 47.81505371 -13.265625 48.9921875 C-13.55211914 50.00651855 -13.83861328 51.02084961 -14.13378906 52.06591797 C-15.02052829 55.06953468 -15.99268272 58.03486837 -17 61 C-18.65 61 -20.3 61 -22 61 C-20.75649404 54.27740723 -19.17943241 47.74415527 -17.25 41.1875 C-16.72000612 39.35808623 -16.19005969 37.52865872 -15.66015625 35.69921875 C-15.25240967 34.30002197 -15.25240967 34.30002197 -14.83642578 32.87255859 C-13.44236036 28.08488384 -12.06373669 23.2928243 -10.6875 18.5 C-10.43323242 17.62239014 -10.17896484 16.74478027 -9.91699219 15.84057617 C-8.78799787 11.9132888 -7.70220052 8.03145708 -7 4 C-8.32 4 -9.64 4 -11 4 C-11 3.34 -11 2.68 -11 2 C-3.375 0 -3.375 0 0 0 Z " fill="#141414" transform="translate(814,553)"/>
<path d="M0 0 C0.99 0 1.98 0 3 0 C2.34 3.63 1.68 7.26 1 11 C3.64 11 6.28 11 9 11 C9 11.66 9 12.32 9 13 C4.545 13.495 4.545 13.495 0 14 C-0.98670595 17.33126413 -1.9645257 20.66472425 -2.9375 24 C-3.21529297 24.93457031 -3.49308594 25.86914062 -3.77929688 26.83203125 C-5.34880008 32.24019891 -6.47745625 37.39092274 -7 43 C-3.34683329 41.75023244 -2.21934164 41.32901247 0 38 C0.66 38.33 1.32 38.66 2 39 C1.04578192 40.14926266 0.08647955 41.29430541 -0.875 42.4375 C-1.40867187 43.07558594 -1.94234375 43.71367188 -2.4921875 44.37109375 C-4.72427457 46.78244169 -5.72922487 46.98894795 -9.0625 47.125 C-12 47 -12 47 -13 46 C-13.76531219 38.19381562 -11.26173326 31.40129915 -9 24 C-8.40804563 21.87738538 -7.8237665 19.75260306 -7.25 17.625 C-7.00765625 16.73039063 -6.7653125 15.83578125 -6.515625 14.9140625 C-6.34546875 14.28242187 -6.1753125 13.65078125 -6 13 C-7.65 13 -9.3 13 -11 13 C-11 12.34 -11 11.68 -11 11 C-9.02 11 -7.04 11 -5 11 C-4.80664062 10.37351562 -4.61328125 9.74703125 -4.4140625 9.1015625 C-4.15367187 8.28429687 -3.89328125 7.46703125 -3.625 6.625 C-3.24214844 5.40683594 -3.24214844 5.40683594 -2.8515625 4.1640625 C-2 2 -2 2 0 0 Z " fill="#131313" transform="translate(874,567)"/>
<path d="M0 0 C2.5625 1.5 2.5625 1.5 4 3 C3.67 4.65 3.34 6.3 3 8 C0.525 7.505 0.525 7.505 -2 7 C-2.33 5.68 -2.66 4.36 -3 3 C-5.28836222 2.58013054 -5.28836222 2.58013054 -8 3 C-12.79446284 6.62508166 -15.44703063 11.27238178 -17 17 C-18.06217807 24.78997077 -18.06217807 24.78997077 -15.6484375 31.8828125 C-13.94385901 33.26297889 -13.94385901 33.26297889 -11.1875 33 C-7.12428032 31.72526442 -5.10513101 29.88333594 -2 27 C-1.34 27.33 -0.68 27.66 0 28 C-6.66467066 36.56886228 -6.66467066 36.56886228 -12.17578125 37.28125 C-15.77828897 37.42275603 -18.27457753 37.3808468 -21.5 35.6875 C-24.83444956 31.93624424 -24.45606408 27.09589284 -24.3984375 22.3359375 C-23.46008104 14.479502 -19.61558532 7.91887439 -13.6875 2.75 C-9.22865181 -0.33805365 -5.31141223 -1.21100199 0 0 Z " fill="#0D0D0D" transform="translate(788,577)"/>
<path d="M0 0 C0.33 0 0.66 0 1 0 C1.15855469 0.68707031 1.31710937 1.37414062 1.48046875 2.08203125 C2.82367117 7.60683122 2.82367117 7.60683122 6.125 12.0625 C10.04526169 13.3408462 13.89715595 13.74077892 18 14 C18 14.33 18 14.66 18 15 C17.16855469 15.10957031 16.33710937 15.21914063 15.48046875 15.33203125 C14.39378906 15.49058594 13.30710937 15.64914062 12.1875 15.8125 C11.10855469 15.96332031 10.02960937 16.11414063 8.91796875 16.26953125 C5.85997294 17.03505363 4.76833088 17.44057372 3 20 C2.21643098 22.26393971 2.21643098 22.26393971 1.8125 24.6875 C1.57466797 25.89986328 1.57466797 25.89986328 1.33203125 27.13671875 C1.22246094 27.75160156 1.11289062 28.36648438 1 29 C1.721875 28.67 2.44375 28.34 3.1875 28 C6.01697427 26.99396471 8.02895466 26.83022598 11 27 C9 29 9 29 5.5 29.875 C1.93623752 30.62333545 1.93623752 30.62333545 0.5625 33.125 C0.2840625 34.053125 0.2840625 34.053125 0 35 C0 34.01 0 33.02 0 32 C-18.60573786 38.47452416 -31.66767376 50.51224536 -42 67 C-42.33 66.34 -42.66 65.68 -43 65 C-34.54272164 47.96715967 -20.06800524 37.30217649 -3 30 C-2.01 30 -1.02 30 0 30 C-0.08785338 28.58222818 -0.19604647 27.16570961 -0.3125 25.75 C-0.37050781 24.96109375 -0.42851563 24.1721875 -0.48828125 23.359375 C-1.11631281 20.46371805 -1.88364372 19.07986737 -4 17 C-6.71413626 16.09012589 -6.71413626 16.09012589 -9.6875 15.75 C-10.68136719 15.60046875 -11.67523437 15.4509375 -12.69921875 15.296875 C-13.45847656 15.19890625 -14.21773437 15.1009375 -15 15 C-15 14.67 -15 14.34 -15 14 C-14.31292969 13.89042969 -13.62585938 13.78085937 -12.91796875 13.66796875 C-12.01691406 13.50941406 -11.11585938 13.35085938 -10.1875 13.1875 C-9.29417969 13.03667969 -8.40085937 12.88585937 -7.48046875 12.73046875 C-4.72341827 11.91854995 -3.67926017 11.30898274 -2 9 C-1.21643098 6.73606029 -1.21643098 6.73606029 -0.8125 4.3125 C-0.57466797 3.10013672 -0.57466797 3.10013672 -0.33203125 1.86328125 C-0.22246094 1.24839844 -0.11289062 0.63351562 0 0 Z " fill="#111111" transform="translate(581,351)"/>
<path d="M0 0 C1.73921261 3.05959443 2.28379487 5.58644155 2.6875 9.0625 C3.10598218 11.69168163 3.10598218 11.69168163 4 14 C8.12529373 16.61797487 12.18377072 17.41265497 17 18 C14.45173272 19.42702968 12.3108846 20.16925641 9.4375 20.875 C5.5571224 22.14494176 4.89704396 22.50028098 3 26 C2.35834034 29.06376699 2.07786168 32.13382616 1.8125 35.25 C1.73064453 36.09046875 1.64878906 36.9309375 1.56445312 37.796875 C1.36483518 39.86350783 1.18087489 41.93164248 1 44 C0.67 44 0.34 44 0 44 C-0.05607422 42.37191406 -0.05607422 42.37191406 -0.11328125 40.7109375 C-0.17897875 39.26559261 -0.24542476 37.82028161 -0.3125 36.375 C-0.34633789 35.30572266 -0.34633789 35.30572266 -0.38085938 34.21484375 C-0.61898905 29.49554657 -1.4427803 26.10417977 -4 22 C-6.46423896 20.76788052 -8.15234663 20.84220092 -10.90869141 20.79467773 C-12.44005234 20.7647599 -12.44005234 20.7647599 -14.00234985 20.73423767 C-15.10759003 20.71752518 -16.2128302 20.70081268 -17.3515625 20.68359375 C-18.4807309 20.66281265 -19.60989929 20.64203156 -20.77328491 20.62062073 C-24.39045972 20.55508665 -28.00770881 20.49622226 -31.625 20.4375 C-34.07292444 20.39431846 -36.52084128 20.35070429 -38.96875 20.30664062 C-44.9790875 20.19940133 -50.98949935 20.09764213 -57 20 C-57 19.67 -57 19.34 -57 19 C-55.20767944 18.96241577 -55.20767944 18.96241577 -53.37915039 18.92407227 C-48.9117712 18.82932509 -44.44452335 18.72927355 -39.97729492 18.62768555 C-38.05024302 18.58458957 -36.12315913 18.54289873 -34.19604492 18.50268555 C-31.41315096 18.44436358 -28.63041431 18.38085354 -25.84765625 18.31640625 C-24.99728287 18.29969376 -24.14690948 18.28298126 -23.27076721 18.26576233 C-12.73050555 18.35146967 -12.73050555 18.35146967 -3 15 C-2.12039247 13.03324241 -2.12039247 13.03324241 -1.8125 10.75 C-1.66683594 9.95207031 -1.52117187 9.15414062 -1.37109375 8.33203125 C-1.18740234 7.17767578 -1.18740234 7.17767578 -1 6 C-0.79375 4.824375 -0.5875 3.64875 -0.375 2.4375 C-0.189375 1.2309375 -0.189375 1.2309375 0 0 Z " fill="#1D1D1D" transform="translate(1177,582)"/>
<path d="M0 0 C2.56331361 2.56331361 2.27869005 3.75611956 2.4375 7.3125 C2.73446764 13.28775386 2.73446764 13.28775386 6 18 C9.63391436 19.00912245 13.25648897 19.57416768 17 20 C14.14155818 22.85844182 11.22308039 22.70789309 7.3125 23.2421875 C4.92409668 23.78418842 4.92409668 23.78418842 3.7578125 25.6171875 C2.74438052 28.80375199 2.30470286 31.93514938 1.875 35.25 C1.70742188 36.51328125 1.53984375 37.7765625 1.3671875 39.078125 C1.18542969 40.52445313 1.18542969 40.52445313 1 42 C0.67 42 0.34 42 0 42 C-0.14695312 40.31970703 -0.14695312 40.31970703 -0.296875 38.60546875 C-0.44696454 37.13271516 -0.59805877 35.66006371 -0.75 34.1875 C-0.811875 33.44951172 -0.87375 32.71152344 -0.9375 31.95117188 C-1.29273817 28.68002042 -1.55703425 26.49314923 -3.79296875 24.00390625 C-6.25762682 22.882814 -7.86662303 22.65876897 -10.5625 22.75 C-11.32691406 22.76546875 -12.09132813 22.7809375 -12.87890625 22.796875 C-15.18773737 22.93793945 -15.18773737 22.93793945 -18 24 C-19.39439664 24.06665376 -20.79169875 24.08538199 -22.1875 24.0625 C-24.0746875 24.0315625 -24.0746875 24.0315625 -26 24 C-26 23.67 -26 23.34 -26 23 C-33.26 22.67 -40.52 22.34 -48 22 C-48 21.67 -48 21.34 -48 21 C-47.02764404 20.98541748 -46.05528809 20.97083496 -45.0534668 20.95581055 C-41.39459145 20.89718653 -37.73629106 20.81996749 -34.07788086 20.73754883 C-32.5040836 20.7045973 -30.93017661 20.67647602 -29.35620117 20.65356445 C-15.79206971 20.78886698 -15.79206971 20.78886698 -3 17 C-0.72845162 13.55715001 -0.61935811 10.32263519 -0.375 6.25 C-0.30023438 5.07953125 -0.22546875 3.9090625 -0.1484375 2.703125 C-0.09945312 1.81109375 -0.05046875 0.9190625 0 0 Z " fill="#262626" transform="translate(460,536)"/>
<path d="M0 0 C3.24388633 2.65408881 5.41413808 4.57329398 6.25390625 8.765625 C6.38604236 14.93197696 5.70385884 18.8830899 1.58203125 23.59375 C-3.873751 28.52605634 -9.98230421 30.19646265 -17.25 30.25 C-20.8125 29.8125 -20.8125 29.8125 -23.25 29.25 C-23.25 28.92 -23.25 28.59 -23.25 28.25 C-22.27160156 28.19392578 -22.27160156 28.19392578 -21.2734375 28.13671875 C-14.56914099 27.63241326 -9.63894527 26.89720962 -4.9375 21.6875 C-2.38098583 17.99475731 -2.04171249 15.86162173 -1.9375 11.375 C-1.90011719 10.32570313 -1.86273437 9.27640625 -1.82421875 8.1953125 C-2.02788466 5.17601118 -2.02788466 5.17601118 -3.94140625 2.9140625 C-6.62842909 0.9772237 -8.21985408 0.67263926 -11.5 0.5 C-12.39203125 0.44328125 -13.2840625 0.3865625 -14.203125 0.328125 C-15.21632813 0.28945313 -15.21632813 0.28945313 -16.25 0.25 C-16.25 -0.08 -16.25 -0.41 -16.25 -0.75 C-5.34462916 -2.87787724 -5.34462916 -2.87787724 0 0 Z " fill="#161616" transform="translate(726.25,558.75)"/>
<path d="M0 0 C0.33 1.65 0.66 3.3 1 5 C-2.28696233 5.79953138 -3.71023192 6.09658936 -7 5 C-10.19293412 6.82453378 -12.68794577 9.1501298 -15 12 C-15.31994155 15.19941554 -15.10244061 16.1086935 -14 19 C-13.62359375 20.08796875 -13.2471875 21.1759375 -12.859375 22.296875 C-11.13112272 28.59890877 -11.13112272 28.59890877 -7 33 C-4.03 30.525 -4.03 30.525 -1 28 C-1.47386028 32.26474248 -3.77031321 34.35752899 -7 37 C-9.625 37.5 -9.625 37.5 -12 37 C-15.47446885 34.06238962 -16.74368286 30.28105496 -18.3125 26.125 C-18.60189453 25.41730469 -18.89128906 24.70960938 -19.18945312 23.98046875 C-20.43322503 20.71442713 -21.16376215 18.74602756 -20.40234375 15.27734375 C-16.08988077 8.27409607 -9.09995649 -1.07058312 0 0 Z " fill="#121212" transform="translate(825,577)"/>
<path d="M0 0 C0 0.99 0 1.98 0 3 C-0.64735107 3.13462646 -1.29470215 3.26925293 -1.96166992 3.40795898 C-30.24803713 9.41641138 -53.41447301 19.73582158 -75 39 C-76.43452051 40.23264263 -77.87139557 41.46256124 -79.3125 42.6875 C-80.199375 43.450625 -81.08625 44.21375 -82 45 C-73.34752595 25.89767807 -44.37731722 12.30940868 -25.74609375 5.25 C-17.42667336 2.47396817 -8.84543274 -0.35436248 0 0 Z " fill="#373737" transform="translate(1206,390)"/>
<path d="M0 0 C3.11347723 3.11347723 2.39473303 6.70193826 2.55859375 10.95703125 C3.07226227 14.49816204 3.61690432 16.31064303 6 19 C8.71997221 19.70451739 10.93296812 20.09903021 13.6875 20.3125 C14.38939453 20.38533203 15.09128906 20.45816406 15.81445312 20.53320312 C17.54099267 20.70938063 19.27035862 20.85745883 21 21 C21 21.33 21 21.66 21 22 C20.02417969 22.10957031 19.04835938 22.21914063 18.04296875 22.33203125 C16.77066406 22.49058594 15.49835937 22.64914062 14.1875 22.8125 C12.92292969 22.96332031 11.65835938 23.11414063 10.35546875 23.26953125 C6.41429378 24.08786167 6.41429378 24.08786167 4 27 C2.99496449 29.72023023 2.99496449 29.72023023 2.3125 32.6875 C2.06113281 33.68136719 1.80976562 34.67523438 1.55078125 35.69921875 C1.36902344 36.45847656 1.18726563 37.21773438 1 38 C0.67 38 0.34 38 0 38 C-0.16435547 36.86111328 -0.16435547 36.86111328 -0.33203125 35.69921875 C-0.49058594 34.70535156 -0.64914062 33.71148437 -0.8125 32.6875 C-0.96332031 31.70136719 -1.11414063 30.71523438 -1.26953125 29.69921875 C-2.07190693 26.73429044 -2.45345409 25.68331001 -5 24 C-8.18546472 23.20272437 -8.18546472 23.20272437 -11.6875 22.8125 C-12.86699219 22.65394531 -14.04648437 22.49539063 -15.26171875 22.33203125 C-16.61716797 22.16767578 -16.61716797 22.16767578 -18 22 C-18 21.67 -18 21.34 -18 21 C-17.09636719 20.89042969 -16.19273437 20.78085937 -15.26171875 20.66796875 C-14.08222656 20.50941406 -12.90273438 20.35085938 -11.6875 20.1875 C-10.51574219 20.03667969 -9.34398437 19.88585937 -8.13671875 19.73046875 C-5.11965655 19.18757044 -5.11965655 19.18757044 -3.15625 17.9375 C-1.28580979 14.80324884 -1.15163667 11.37499069 -0.8125 7.8125 C-0.73064453 7.06291016 -0.64878906 6.31332031 -0.56445312 5.54101562 C-0.36459216 3.69524082 -0.18073462 1.84774567 0 0 Z " fill="#1E1E1E" transform="translate(870,288)"/>
<path d="M0 0 C3.60555003 0.20603143 5.01433211 1.01210267 7.8125 3.375 C10.62437205 7.08560331 10.64751167 10.66148392 10.4140625 15.1953125 C9.22797968 23.22934522 4.93816328 29.56970594 -1 35 C-4.44614275 37.07703565 -6.98622749 37.18244421 -11 37 C-10.443125 36.7525 -9.88625 36.505 -9.3125 36.25 C-2.60710081 32.6254599 -0.45437202 28.5448438 2.05078125 21.53515625 C3.43904381 16.36487798 3.96972737 11.29309521 3 6 C1.53477326 3.81478875 1.53477326 3.81478875 0 2 C0 1.34 0 0.68 0 0 Z " fill="#0F0F0F" transform="translate(634,577)"/>
<path d="M0 0 C0.33 0 0.66 0 1 0 C1.06058594 0.60328125 1.12117188 1.2065625 1.18359375 1.828125 C1.30927734 3.02695312 1.30927734 3.02695312 1.4375 4.25 C1.55931641 5.43335938 1.55931641 5.43335938 1.68359375 6.640625 C2.10121863 9.87890597 2.10121863 9.87890597 3 13 C6.68084338 14.22694779 10.35391347 14.61050508 14.1875 15.0625 C14.93708984 15.15337891 15.68667969 15.24425781 16.45898438 15.33789062 C18.30565535 15.5613731 20.15278554 15.78105513 22 16 C22 16.33 22 16.66 22 17 C20.97519531 17.01417969 19.95039062 17.02835937 18.89453125 17.04296875 C17.53381029 17.08989016 16.17313459 17.13813744 14.8125 17.1875 C14.13896484 17.19330078 13.46542969 17.19910156 12.77148438 17.20507812 C8.9233501 17.37402061 7.11535481 17.90918877 4.0625 20.3125 C1.5626307 23.56990545 1.2382776 25.94928083 1 30 C-2.106467 26.893533 -2.69089782 23.16532512 -4 19 C-8.62 18.34 -13.24 17.68 -18 17 C-14.4482799 15.22413995 -12.08232923 14.51372154 -8.25 13.875 C-7.26515625 13.70742188 -6.2803125 13.53984375 -5.265625 13.3671875 C-4.51796875 13.24601562 -3.7703125 13.12484375 -3 13 C-2.86722656 12.14535156 -2.73445313 11.29070312 -2.59765625 10.41015625 C-2.42105469 9.30542969 -2.24445313 8.20070313 -2.0625 7.0625 C-1.80146484 5.40927734 -1.80146484 5.40927734 -1.53515625 3.72265625 C-1 1 -1 1 0 0 Z " fill="#1C1C1C" transform="translate(1030,309)"/>
<path d="M0 0 C-1.01869577 2.08951085 -2.07044816 4.11916932 -3.25390625 6.12109375 C-7.08683878 12.90595641 -8.35227852 19.20842803 -8 27 C-7.15246641 30.7162748 -7.15246641 30.7162748 -5 33 C-2.41585574 33.96906827 -2.41585574 33.96906827 0 34 C0 34.33 0 34.66 0 35 C-7.25867508 35.61514196 -7.25867508 35.61514196 -10.9375 32.5625 C-11.618125 31.716875 -12.29875 30.87125 -13 30 C-13.33 29.67 -13.66 29.34 -14 29 C-14.95719689 19.4751064 -13.36226224 11.89056325 -7.9375 4 C-5.3032113 1.28073424 -3.86094949 0 0 0 Z " fill="#0D0D0D" transform="translate(743,579)"/>
<path d="M0 0 C3.3 0 6.6 0 10 0 C10 0.33 10 0.66 10 1 C10.68707031 1.08636719 11.37414062 1.17273438 12.08203125 1.26171875 C19.46303094 2.41269009 19.46303094 2.41269009 22 5.1875 C22.33 6.115625 22.66 7.04375 23 8 C23.391875 8.99 23.78375 9.98 24.1875 11 C25.66987588 16.50071713 25.15272577 22.3576313 25 28 C24.67 28 24.34 28 24 28 C23.92523437 27.3709375 23.85046875 26.741875 23.7734375 26.09375 C22.75672283 19.47513688 21.00262159 14.60282191 16 10 C11.03131003 6.83004033 5.65634402 4.63736274 0 3 C0 2.01 0 1.02 0 0 Z " fill="#EAEAEA" transform="translate(1006,324)"/>
<path d="M0 0 C15.85027365 -0.51129915 36.58243782 0.79121891 51 8 C50.67 9.32 50.34 10.64 50 12 C49.05382812 11.75765625 48.10765625 11.5153125 47.1328125 11.265625 C31.50157626 7.28974959 16.06597731 3.66350719 0 2 C0 1.34 0 0.68 0 0 Z " fill="#1A1A1A" transform="translate(640,374)"/>
<path d="M0 0 C0.66 0.66 1.32 1.32 2 2 C1.91638356 5.76273998 1.25545845 7.65672771 -1 10.6875 C-4.76417032 13.58904796 -8.45226588 14.78132615 -13 16 C-12.56343578 10.54294724 -11.34633494 7.3305511 -8 3 C-7.525625 2.38125 -7.05125 1.7625 -6.5625 1.125 C-4.30671221 -0.49916721 -2.70619741 -0.34694839 0 0 Z " fill="#F1F1F1" transform="translate(850,579)"/>
<path d="M0 0 C-0.13277344 0.59167969 -0.26554688 1.18335938 -0.40234375 1.79296875 C-0.76712338 3.42515789 -1.12898321 5.05800168 -1.48828125 6.69140625 C-1.85349129 8.33903321 -2.23411313 9.98327516 -2.625 11.625 C-3.56412969 17.57282136 -2.83626654 22.37643371 -1 28 C-3.3125 27.875 -3.3125 27.875 -6 27 C-9.87746523 21.91918349 -9.65590964 16.10705057 -9 10 C-8.08434809 6.33075719 -6.73604148 3.69143291 -3.9375 1.0625 C-2 0 -2 0 0 0 Z " fill="#0B0B0B" transform="translate(587,585)"/>
<path d="M0 0 C2.5625 1.625 2.5625 1.625 4 4 C4.08094494 7.80441239 3.31816728 9.56893466 1.0625 12.625 C-2.91171027 15.70704061 -7.12357495 17.72717041 -12 19 C-12.99 18.67 -13.98 18.34 -15 18 C-12.02977283 16.01984856 -9.09016403 14.63586413 -5.83984375 13.1953125 C-3.57692025 11.7251329 -2.90314759 10.5210858 -2 8 C-2.30378052 5.31006947 -2.30378052 5.31006947 -3 3 C-6.42935786 2.60807339 -7.73124432 2.8144306 -10.625 4.8125 C-11.9581755 6.04042481 -13.28086896 7.28086896 -14.5625 8.5625 C-16.24465957 10.24465957 -18.07557562 11.60645131 -20 13 C-18.63924722 7.3868948 -14.37378806 4.38968575 -10 1 C-6.79629912 -0.60185044 -3.4761019 -0.48679139 0 0 Z " fill="#121212" transform="translate(853,577)"/>
<path d="M0 0 C0.495 0.99 0.495 0.99 1 2 C1.721875 1.67 2.44375 1.34 3.1875 1 C6.01697427 -0.00603529 8.02895466 -0.16977402 11 0 C9 2 9 2 5.5 2.875 C1.93623752 3.62333545 1.93623752 3.62333545 0.5625 6.125 C0.2840625 7.053125 0.2840625 7.053125 0 8 C0 7.01 0 6.02 0 5 C-18.60573786 11.47452416 -31.66767376 23.51224536 -42 40 C-42.33 39.34 -42.66 38.68 -43 38 C-34.54272164 20.96715967 -20.06800524 10.30217649 -3 3 C-2.01 3 -1.02 3 0 3 C0 2.01 0 1.02 0 0 Z " fill="#2D2D2D" transform="translate(581,378)"/>
<path d="M0 0 C0 0.99 0 1.98 0 3 C-0.72590332 3.17128418 -1.45180664 3.34256836 -2.19970703 3.51904297 C-5.50881242 4.30154098 -8.81690777 5.08823028 -12.125 5.875 C-13.26710938 6.14441406 -14.40921875 6.41382813 -15.5859375 6.69140625 C-16.69453125 6.95566406 -17.803125 7.21992188 -18.9453125 7.4921875 C-19.96125488 7.73308105 -20.97719727 7.97397461 -22.02392578 8.22216797 C-25.06915467 9.01807439 -28.02577213 9.97239846 -31 11 C-30.9375 9.1640625 -30.9375 9.1640625 -30 7 C-27.6174704 5.89990343 -25.49484237 5.10624174 -23 4.375 C-22.31881104 4.16335205 -21.63762207 3.9517041 -20.93579102 3.73364258 C-14.02657661 1.6235644 -7.30701335 -0.37471863 0 0 Z " fill="#1B1B1B" transform="translate(1206,390)"/>
<path d="M0 0 C4.71218784 0.63168003 9.00531005 1.89080011 13.4375 3.5625 C14.12400635 3.82063477 14.8105127 4.07876953 15.51782227 4.34472656 C20.65787219 6.3422982 25.56797499 8.66526488 30.4375 11.25 C31.08195068 11.5910376 31.72640137 11.9320752 32.39038086 12.28344727 C36.86794956 14.73589912 36.86794956 14.73589912 38 17 C33.67293136 15.65472546 29.57140678 13.9894405 25.42504883 12.18164062 C16.7399419 8.39737174 8.21236767 5.2843065 -1 3 C-0.67 2.01 -0.34 1.02 0 0 Z " fill="#202020" transform="translate(203,455)"/>
<path d="M0 0 C1.25425781 0.10183594 2.50851562 0.20367188 3.80078125 0.30859375 C5.22970703 0.43427734 5.22970703 0.43427734 6.6875 0.5625 C5.99584212 5.98048672 4.92950752 11.2447785 3.6875 16.5625 C3.3575 16.5625 3.0275 16.5625 2.6875 16.5625 C2.58953125 15.95921875 2.4915625 15.3559375 2.390625 14.734375 C1.71898918 11.14459734 1.11002723 8.22164248 -0.875 5.125 C-4.43903363 2.84036306 -8.17303569 2.2347207 -12.3125 1.5625 C-12.3125 1.2325 -12.3125 0.9025 -12.3125 0.5625 C-8.06698144 -0.53337955 -4.3532161 -0.36615836 0 0 Z " fill="#171717" transform="translate(572.3125,556.4375)"/>
<path d="M0 0 C0.66 0.33 1.32 0.66 2 1 C1.67 1.33 1.34 1.66 1 2 C1.66 2.66 2.32 3.32 3 4 C2.07703125 4.23074219 1.1540625 4.46148437 0.203125 4.69921875 C-0.72657104 4.93185425 -0.72657104 4.93185425 -1.67504883 5.16918945 C-3.07566111 5.51905413 -4.47654732 5.86782379 -5.87768555 6.21557617 C-10.06220088 7.25612656 -14.239147 8.32053948 -18.41015625 9.4140625 C-19.30831055 9.64649658 -20.20646484 9.87893066 -21.13183594 10.1184082 C-22.90112735 10.57652255 -24.66876543 11.04107663 -26.43457031 11.51245117 C-27.24635742 11.7210376 -28.05814453 11.92962402 -28.89453125 12.14453125 C-29.97504761 12.42840698 -29.97504761 12.42840698 -31.07739258 12.71801758 C-33 13 -33 13 -36 12 C-28.98523338 9.24605458 -21.83598489 7.0550652 -14.625 4.875 C-12.28337348 4.16564734 -9.94220259 3.4547883 -7.6015625 2.7421875 C-6.57369629 2.4313623 -5.54583008 2.12053711 -4.48681641 1.80029297 C-2.03467598 1.0805512 -2.03467598 1.0805512 0 0 Z " fill="#393939" transform="translate(793,483)"/>
<path d="M0 0 C2.5625 1.5 2.5625 1.5 4 3 C3.67 4.65 3.34 6.3 3 8 C0.525 7.505 0.525 7.505 -2 7 C-2.33 5.68 -2.66 4.36 -3 3 C-7.82568443 2.24598681 -10.45288842 4.33865359 -14.23046875 7.00390625 C-14.81441406 7.33261719 -15.39835938 7.66132812 -16 8 C-16.66 7.67 -17.32 7.34 -18 7 C-12.38563124 1.79708616 -7.89189427 -1.79935189 0 0 Z " fill="#131313" transform="translate(788,577)"/>
<path d="M0 0 C0.33 1.65 0.66 3.3 1 5 C-2.28696233 5.79953138 -3.71023192 6.09658936 -7 5 C-9.07344363 6.32410943 -9.07344363 6.32410943 -11.0625 8.25 C-11.75472656 8.87390625 -12.44695313 9.4978125 -13.16015625 10.140625 C-15.18084004 12.06441254 -15.18084004 12.06441254 -17 15 C-17.99 15.33 -18.98 15.66 -20 16 C-16.55807116 8.44125432 -9.12184779 -1.07315856 0 0 Z " fill="#141414" transform="translate(825,577)"/>
<path d="M0 0 C18.15 0 36.3 0 55 0 C55 0.33 55 0.66 55 1 C46.09 1.99 46.09 1.99 37 3 C37 2.34 37 1.68 37 1 C24.79 1 12.58 1 0 1 C0 0.67 0 0.34 0 0 Z " fill="#C2C2C2" transform="translate(881,374)"/>
<path d="M0 0 C2.07198326 3.10797488 2.73550768 5.41602892 3.6875 9 C5.72608484 15.86681211 8.96080547 21.15207103 13 27 C14.01183797 28.65950646 15.01544562 30.32416276 16 32 C15.01 32 14.02 32 13 32 C6.14906467 24.95000602 0.23687884 12.85264054 -0.16015625 3.04296875 C-0.10730469 2.03878906 -0.05445313 1.03460938 0 0 Z " fill="#343434" transform="translate(531,458)"/>
<path d="M0 0 C9.44573505 -0.30470113 18.6421436 0.85830074 28 2 C25.69538479 4.13009559 24.53171399 4.9869563 21.34277344 5.06518555 C19.86599121 4.85309448 19.86599121 4.85309448 18.359375 4.63671875 C17.28945313 4.49169922 16.21953125 4.34667969 15.1171875 4.19726562 C14.00601563 4.02904297 12.89484375 3.86082031 11.75 3.6875 C10.62335937 3.53087891 9.49671875 3.37425781 8.3359375 3.21289062 C5.55472225 2.82399188 2.77678542 2.41917927 0 2 C0 1.34 0 0.68 0 0 Z " fill="#333333" transform="translate(640,374)"/>
<path d="M0 0 C4.18980742 1.41170088 6.97468034 3.43840059 10.3125 6.3125 C14.69742098 9.99630895 19.06157819 13.11148913 24 16 C23.67 16.66 23.34 17.32 23 18 C19.89718046 17.41091581 18.09525579 16.52310618 15.72265625 14.453125 C15.12646484 13.9375 14.53027344 13.421875 13.91601562 12.890625 C13.30435547 12.34921875 12.69269531 11.8078125 12.0625 11.25 C11.45470703 10.7240625 10.84691406 10.198125 10.22070312 9.65625 C6.67266706 6.56367919 3.28708461 3.36817019 0 0 Z " fill="#1D1D1D" transform="translate(276,499)"/>
<path d="M0 0 C-1.1875 1.5 -1.1875 1.5 -3 3 C-4.175625 2.9690625 -4.175625 2.9690625 -5.375 2.9375 C-9.57367893 3.03746855 -11.70933961 5.70933961 -14.5625 8.5625 C-16.24465957 10.24465957 -18.07557562 11.60645131 -20 13 C-18.63924722 7.3868948 -14.37378806 4.38968575 -10 1 C-6.78548731 -0.60725635 -3.56387464 -0.05748185 0 0 Z " fill="#1E1E1E" transform="translate(853,577)"/>
<path d="M0 0 C5.65009259 -0.54479897 9.04618378 1.18726266 13.8125 3.875 C14.49248047 4.23980469 15.17246094 4.60460937 15.87304688 4.98046875 C20.85661702 7.71323403 20.85661702 7.71323403 22 10 C17.04242102 8.45173401 12.36189599 6.48219062 7.625 4.375 C6.88894531 4.05015625 6.15289062 3.7253125 5.39453125 3.390625 C3.59529031 2.59615497 1.79749504 1.79841229 0 1 C0 0.67 0 0.34 0 0 Z " fill="#2B2B2B" transform="translate(219,462)"/>
<path d="M0 0 C0 0.66 0 1.32 0 2 C-1.0725 2.28875 -2.145 2.5775 -3.25 2.875 C-8.47988715 4.44396614 -11.26390526 5.99704135 -15 10 C-15 7 -15 7 -13.5390625 5.4296875 C-12.90742187 4.91664063 -12.27578125 4.40359375 -11.625 3.875 C-10.99851562 3.35679687 -10.37203125 2.83859375 -9.7265625 2.3046875 C-6.4178354 -0.19557235 -4.09091038 -0.08893283 0 0 Z " fill="#1E1E1E" transform="translate(634,577)"/>
<path d="M0 0 C0.58523438 0.22042969 1.17046875 0.44085937 1.7734375 0.66796875 C0.62875 1.56515625 0.62875 1.56515625 -0.5390625 2.48046875 C-3.12068594 4.47626527 -3.12068594 4.47626527 -4.7265625 6.29296875 C-6.68462494 8.08785932 -8.74140569 8.79480555 -11.2265625 9.66796875 C-9.86804119 6.58103171 -8.38145297 4.58155141 -5.8515625 2.35546875 C-4.97371094 1.55689453 -4.97371094 1.55689453 -4.078125 0.7421875 C-2.2265625 -0.33203125 -2.2265625 -0.33203125 0 0 Z " fill="#121212" transform="translate(593.2265625,578.33203125)"/>
<path d="M0 0 C-3.77992745 2.18110696 -7.86495729 3.14094795 -12.0625 4.1875 C-12.78244141 4.37763672 -13.50238281 4.56777344 -14.24414062 4.76367188 C-19.63759921 6.12080026 -19.63759921 6.12080026 -23 5 C-18.63991873 3.30441284 -14.26166376 1.69747906 -9.8125 0.25 C-9.01457031 -0.01296875 -8.21664062 -0.2759375 -7.39453125 -0.546875 C-4.64093885 -1.06794632 -2.69057587 -0.7072917 0 0 Z " fill="#696969" transform="translate(780,490)"/>
<path d="M0 0 C3.03852705 1.40976705 5.5939595 3.08870228 8.25 5.125 C8.95640625 5.66382813 9.6628125 6.20265625 10.390625 6.7578125 C10.92171875 7.16773438 11.4528125 7.57765625 12 8 C11.01 8.99 10.02 9.98 9 11 C7.49403892 9.54782324 5.99537896 8.08807139 4.5 6.625 C3.6646875 5.81289063 2.829375 5.00078125 1.96875 4.1640625 C0 2 0 2 0 0 Z " fill="#101010" transform="translate(546,490)"/>
<path d="M0 0 C0 0.99 0 1.98 0 3 C-3.9813783 4.3271261 -7.85045227 4.06915913 -12 4 C-11.67 3.01 -11.34 2.02 -11 1 C-7.26562152 0.12132271 -3.83225427 -0.08912219 0 0 Z " fill="#181818" transform="translate(1206,390)"/>
<path d="M0 0 C0.33 0.66 0.66 1.32 1 2 C1.721875 1.67 2.44375 1.34 3.1875 1 C6.01697427 -0.00603529 8.02895466 -0.16977402 11 0 C9 2 9 2 5.5 2.875 C1.93623752 3.62333545 1.93623752 3.62333545 0.5625 6.125 C0.376875 6.74375 0.19125 7.3625 0 8 C0 7.01 0 6.02 0 5 C-0.928125 5.309375 -0.928125 5.309375 -1.875 5.625 C-2.57625 5.74875 -3.2775 5.8725 -4 6 C-4.66 5.34 -5.32 4.68 -6 4 C-4.02 3.67 -2.04 3.34 0 3 C0 2.01 0 1.02 0 0 Z " fill="#3C3C3C" transform="translate(581,378)"/>
<path d="M0 0 C0 0.66 0 1.32 0 2 C-2.1171875 3.54296875 -2.1171875 3.54296875 -4.875 5.1875 C-5.77992188 5.73792969 -6.68484375 6.28835938 -7.6171875 6.85546875 C-8.40351562 7.23316406 -9.18984375 7.61085938 -10 8 C-10.66 7.67 -11.32 7.34 -12 7 C-10.56967163 5.82455195 -9.13046758 4.65989738 -7.6875 3.5 C-6.88699219 2.8503125 -6.08648438 2.200625 -5.26171875 1.53125 C-3 0 -3 0 0 0 Z " fill="#252525" transform="translate(782,577)"/>
<path d="M0 0 C-1.30574169 2.91280837 -2.7074208 4.80294493 -5 7 C-5.99 8.485 -5.99 8.485 -7 10 C-7.99 10.33 -8.98 10.66 -10 11 C-8.64763423 8.06120516 -7.10057341 5.70767089 -5 3.25 C-4.484375 2.63640625 -3.96875 2.0228125 -3.4375 1.390625 C-2 0 -2 0 0 0 Z " fill="#2B2B2B" transform="translate(815,582)"/>
<path d="M0 0 C0.66 0.66 1.32 1.32 2 2 C-3.445 5.96 -3.445 5.96 -9 10 C-9.66 9.67 -10.32 9.34 -11 9 C-7.37 6.03 -3.74 3.06 0 0 Z " fill="#323232" transform="translate(1148,412)"/>
<path d="M0 0 C-1.78881736 1.00508801 -3.58114696 2.00392736 -5.375 3 C-6.37273438 3.556875 -7.37046875 4.11375 -8.3984375 4.6875 C-11 6 -11 6 -13 6 C-13 5.34 -13 4.68 -13 4 C-11.59248779 3.13083113 -10.1735479 2.28014851 -8.75 1.4375 C-7.96109375 0.96183594 -7.1721875 0.48617188 -6.359375 -0.00390625 C-3.69155375 -1.13022151 -2.65498232 -1.0169313 0 0 Z " fill="#191919" transform="translate(577,384)"/>
<path d="M0 0 C0.66 0.33 1.32 0.66 2 1 C1.67 1.33 1.34 1.66 1 2 C1.66 2.66 2.32 3.32 3 4 C-0.3 4.33 -3.6 4.66 -7 5 C-7 4.34 -7 3.68 -7 3 C-4.69631264 1.93347808 -2.35981813 0.93578995 0 0 Z " fill="#222222" transform="translate(793,483)"/>
<path d="M0 0 C3.0625 0.125 3.0625 0.125 5.0625 1.125 C5.0625 1.785 5.0625 2.445 5.0625 3.125 C1.6875 3.25 1.6875 3.25 -1.9375 3.125 C-2.5975 2.465 -3.2575 1.805 -3.9375 1.125 C-2.9375 0.125 -2.9375 0.125 0 0 Z " fill="#171717" transform="translate(667.9375,376.875)"/>
<path d="M0 0 C0.33 0.66 0.66 1.32 1 2 C-2.625 6.875 -2.625 6.875 -6 8 C-6.66 7.34 -7.32 6.68 -8 6 C-7.05125 5.38125 -6.1025 4.7625 -5.125 4.125 C-2.05554891 2.18029031 -2.05554891 2.18029031 0 0 Z " fill="#2C2C2C" transform="translate(852,604)"/>
<path d="M0 0 C-0.33 0.99 -0.66 1.98 -1 3 C-2.84765625 3.73046875 -2.84765625 3.73046875 -5.0625 4.1875 C-5.79597656 4.34605469 -6.52945313 4.50460937 -7.28515625 4.66796875 C-8.13400391 4.83232422 -8.13400391 4.83232422 -9 5 C-9.33 4.34 -9.66 3.68 -10 3 C-8.70990357 2.49596232 -7.41786211 1.99690074 -6.125 1.5 C-5.04605469 1.08234375 -5.04605469 1.08234375 -3.9453125 0.65625 C-2 0 -2 0 0 0 Z " fill="#232323" transform="translate(848,591)"/>
<path d="M0 0 C4.59306496 1.4859916 7.43569245 3.85014682 11 7 C10.34 7.66 9.68 8.32 9 9 C7.49704815 7.69088122 5.99770689 6.37761608 4.5 5.0625 C3.6646875 4.33160156 2.829375 3.60070312 1.96875 2.84765625 C1.3190625 2.23792969 0.669375 1.62820313 0 1 C0 0.67 0 0.34 0 0 Z " fill="#4C4C4C" transform="translate(276,499)"/>
<path d="M0 0 C2.64 0.33 5.28 0.66 8 1 C6.4375 2.5625 6.4375 2.5625 4 4 C0.25 3.6875 0.25 3.6875 -3 3 C-2.01 2.67 -1.02 2.34 0 2 C0 1.34 0 0.68 0 0 Z " fill="#303030" transform="translate(673,378)"/>
<path d="M0 0 C2 2 2 2 2.1953125 5.0390625 C2.17210937 6.22242188 2.14890625 7.40578125 2.125 8.625 C2.10695313 9.81351562 2.08890625 11.00203125 2.0703125 12.2265625 C2.04710937 13.14179688 2.02390625 14.05703125 2 15 C1.67 15 1.34 15 1 15 C0.63536268 13.25215171 0.2836922 11.50159498 -0.0625 9.75 C-0.25972656 8.77546875 -0.45695312 7.8009375 -0.66015625 6.796875 C-0.98397535 4.131881 -0.85503199 2.51128277 0 0 Z " fill="#AAAAAA" transform="translate(1029,337)"/>
<path d="M0 0 C0.66 0.33 1.32 0.66 2 1 C0.54643338 4.75504711 0.54643338 4.75504711 -1.8125 5.8125 C-4.38764878 6.03322704 -6.50222685 5.62444329 -9 5 C-9 4.67 -9 4.34 -9 4 C-7.88625 3.71125 -6.7725 3.4225 -5.625 3.125 C-1.99708908 2.30758671 -1.99708908 2.30758671 0 0 Z " fill="#3D3D3D" transform="translate(747,608)"/>
<path d="M0 0 C0.66 0 1.32 0 2 0 C1.34 2.31 0.68 4.62 0 7 C-1.32 7.33 -2.64 7.66 -4 8 C-2.87548273 5.0280615 -1.77706209 2.66559313 0 0 Z " fill="#282828" transform="translate(569,598)"/>
<path d="M0 0 C-1 3 -1 3 -3.375 4.75 C-6 6 -6 6 -9 5 C-7.87926138 4.16094435 -6.75325453 3.32892169 -5.625 2.5 C-4.99851562 2.0359375 -4.37203125 1.571875 -3.7265625 1.09375 C-2 0 -2 0 0 0 Z " fill="#262626" transform="translate(1158,407)"/>
<path d="M0 0 C0.33 0.66 0.66 1.32 1 2 C-0.98 2.33 -2.96 2.66 -5 3 C-5 2.34 -5 1.68 -5 1 C-5.66 0.67 -6.32 0.34 -7 0 C-3.88407501 -1.03864166 -2.9737344 -1.09036928 0 0 Z " fill="#2A2A2A" transform="translate(1195,393)"/>
<path d="M0 0 C0.66 0.33 1.32 0.66 2 1 C0.35 2.98 -1.3 4.96 -3 7 C-3.99 6.34 -4.98 5.68 -6 5 C-4.02 3.35 -2.04 1.7 0 0 Z " fill="#353535" transform="translate(786,604)"/>
<path d="M0 0 C0 3 0 3 -2.5 5.6875 C-3.325 6.450625 -4.15 7.21375 -5 8 C-5 5 -5 5 -2.5 2.3125 C-1.675 1.549375 -0.85 0.78625 0 0 Z " fill="#393939" transform="translate(662,604)"/>
<path d="M0 0 C2.05825864 4.11651727 2.34008135 4.86808251 1 9 C0.01 9.495 0.01 9.495 -1 10 C-0.67 6.7 -0.34 3.4 0 0 Z " fill="#3B3B3B" transform="translate(1177,582)"/>
<path d="M0 0 C-0.33 0.99 -0.66 1.98 -1 3 C-3.97 2.67 -6.94 2.34 -10 2 C-10 1.67 -10 1.34 -10 1 C-6.59437148 0.22157062 -3.49234244 -0.09978121 0 0 Z " fill="#2D2D2D" transform="translate(570,556)"/>
<path d="M0 0 C0.66 0 1.32 0 2 0 C2 2.97 2 5.94 2 9 C1.67 9 1.34 9 1 9 C0.67 7.35 0.34 5.7 0 4 C-0.99 4.495 -0.99 4.495 -2 5 C-1.34 3.35 -0.68 1.7 0 0 Z " fill="#171717" transform="translate(1139,281)"/>
</svg>
